<?xml version="1.0" encoding="UTF-8" standalone="no"?>
<!-- Created with Inkscape (http://www.inkscape.org/) -->

<svg
   xmlns:dc="http://purl.org/dc/elements/1.1/"
   xmlns:cc="http://creativecommons.org/ns#"
   xmlns:rdf="http://www.w3.org/1999/02/22-rdf-syntax-ns#"
   xmlns:svg="http://www.w3.org/2000/svg"
   xmlns="http://www.w3.org/2000/svg"
   xmlns:sodipodi="http://sodipodi.sourceforge.net/DTD/sodipodi-0.dtd"
   xmlns:inkscape="http://www.inkscape.org/namespaces/inkscape"
   version="1.1"
   id="svg657"
   width="268"
   height="268"
   viewBox="0 0 268 268"
   sodipodi:docname="masque logo graphique.svg"
   inkscape:version="0.92.4 (5da689c313, 2019-01-14)">
  <metadata
     id="metadata663">
    <rdf:RDF>
      <cc:Work
         rdf:about="">
        <dc:format>image/svg+xml</dc:format>
        <dc:type
           rdf:resource="http://purl.org/dc/dcmitype/StillImage" />
        <dc:title></dc:title>
      </cc:Work>
    </rdf:RDF>
  </metadata>
  <defs
     id="defs661" />
  <sodipodi:namedview
     pagecolor="#ffffff"
     bordercolor="#666666"
     borderopacity="1"
     objecttolerance="10"
     gridtolerance="10"
     guidetolerance="10"
     inkscape:pageopacity="0"
     inkscape:pageshadow="2"
     inkscape:window-width="1366"
     inkscape:window-height="705"
     id="namedview659"
     showgrid="false"
     inkscape:zoom="0.44029851"
     inkscape:cx="377.75837"
     inkscape:cy="302.35721"
     inkscape:window-x="-8"
     inkscape:window-y="-8"
     inkscape:window-maximized="1"
     inkscape:current-layer="g5213" />
  <g
     id="g667"
     transform="translate(15.898309,-19.305085)">
    <g
       id="g5197"
       transform="translate(36.338984,28.38983)">
      <g
         id="g5213">
        <g
           id="g5221">
          <path
             inkscape:connector-curvature="0"
             id="path679"
             d="m 71.074413,253.43299 c -11.362379,-1.2109 -23.146691,-4.99363 -36.700778,-11.78087 -30.5944552,-15.32025 -54.574417,-45.44233 -64.22466,-80.67486 -2.401276,-8.76694 -2.783455,-13.24132 -2.772842,-32.46258 0.01366,-24.68323 1.326153,-32.383147 8.480737,-49.752498 C -16.011492,59.020819 1.0701158,37.265939 18.437674,24.531921 29.289146,16.57554 47.65962,8.014797 60.654559,4.8586114 70.346086,2.5047556 74.627726,2.2210585 94.214668,2.6349583 c 21.960712,0.46406 22.727822,0.5733535 35.105472,5.0015785 40.26495,14.4051722 70.22081,47.1051162 80.86086,88.2680482 3.07177,11.883655 3.23102,13.951895 2.74673,35.670565 -0.46651,20.92173 -0.83342,24.05764 -3.96441,33.88404 -6.89625,21.64344 -17.89236,39.2963 -34.51959,55.41677 -15.11251,14.65192 -31.70738,24.40576 -50.66229,29.77737 -10.32925,2.92722 -37.751898,4.37342 -52.707027,2.77966 z m 53.951727,-74.94021 c 3.12193,-1.41226 7.21186,-4.68095 9.21528,-7.36492 l 3.60209,-4.82573 v -19.84919 -19.84919 l -35.50352,-0.63697 c -34.641196,-0.6215 -35.601856,-0.70871 -39.552173,-3.59012 -4.427645,-3.22958 -5.551584,-2.01756 -1.557166,1.6792 2.235161,2.06859 2.491469,3.92372 2.491469,18.03273 0,9.60501 -0.483521,15.72691 -1.242146,15.72691 -0.683182,0 -3.486091,-2.07318 -6.228687,-4.60706 -9.782082,-9.03766 -4.772768,-1.56078 7.229643,10.79094 17.190355,17.69064 18.285508,18.15929 40.85541,17.48382 11.64433,-0.34849 16.35449,-1.02927 20.6898,-2.99042 z m -24.49644,-20.5558 c -2.060412,-0.82428 -1.797992,-1.10332 1.71288,-1.82138 8.87655,-1.81553 23.39095,-0.45573 19.82307,1.85713 -2.04646,1.32662 -18.19751,1.2998 -21.53595,-0.0358 z m -1.926922,-11.42927 c 0,-1.38037 11.036402,-2.35539 18.997492,-1.67836 10.63534,0.90444 6.21191,2.79457 -6.54012,2.79457 -6.85156,0 -12.457372,-0.5023 -12.457372,-1.11621 z"
             style="fill:#ffb380;stroke-width:1.25976431" />
          <path
             inkscape:connector-curvature="0"
             id="path675"
             d="m 58.873384,253.59977 c -23.890929,-5.4021 -46.01684,-16.42035 -60.3453592,-30.05075 -2.99595,-2.84997 -5.95901,-5.35863 -6.58458,-5.57479 C -10.356075,217.17966 -22.1007,202.21498 -27.371969,193.36307 -59.267707,139.80135 -50.10142,73.324502 -4.9654452,30.863818 13.515324,13.478436 34.640335,2.6509356 60.173414,-2.5227306 c 14.88737,-3.016566 42.773516,-2.040071 57.882656,2.02689024 35.64643,9.59502876 66.89911,35.37905436 83.3239,68.74372836 8.61356,17.497244 12.23258,31.863482 13.03922,51.761062 1.53076,37.7592 -10.2986,69.31706 -36.1998,96.57227 -4.35564,4.58333 -8.44932,8.33333 -9.09708,8.33333 -0.64776,0 -2.50265,1.23823 -4.12198,2.75162 -9.45659,8.83786 -29.96167,19.30166 -46.9841,23.9761 -13.84829,3.80282 -46.240456,4.87492 -59.142846,1.9575 z m 33.433444,-46.19278 c 3.43791,-0.762 9.026752,-3.14594 12.419622,-5.29764 3.39288,-2.1517 6.88004,-3.49764 7.74925,-2.99096 0.8692,0.50667 0.53037,-0.27917 -0.75296,-1.7463 -2.69924,-3.08583 -3.16621,-12.26188 -0.66667,-13.10022 0.91667,-0.30745 4.25067,-1.2209 7.4089,-2.02989 7.44718,-1.90764 15.50633,-9.27065 18.37832,-16.79084 2.07594,-5.43577 2.16254,-9.62491 0.98377,-47.5819 -1.03759,-33.410532 -1.72089,-42.607723 -3.46375,-46.621352 l -2.17117,-5 h -21.44419 c -28.717062,0 -31.830472,1.31102 -33.983646,14.310124 -1.09859,6.632405 -6.9095,12.356539 -12.54386,12.356539 -5.64375,0 -6.83103,2.247915 -6.83103,12.933339 0,11.23416 -1.60629,12.43523 -7.22183,5.4 -6.20789,-7.77735 -7.85336,-9 -12.11237,-9 -2.723069,0 -5.270169,1.13812 -7.240229,3.23514 -2.78016,2.95935 -3.03426,4.44635 -2.98062,17.44292 0.0664,16.09152 1.49492,19.77658 8.185089,21.11462 l 4.14398,0.82878 -0.38701,26.61146 -0.38701,26.61146 6.66666,4.00262 c 12.62128,7.5777 28.03949,9.34856 46.250754,5.3121 z"
             style="fill:#ff0000;stroke-width:1.33333337" />
          <path
             inkscape:connector-curvature="0"
             id="path673"
             d="M 58.873391,253.59902 C 41.242666,249.61244 23.264274,242.00127 10.12546,232.96154 3.2164878,228.20804 -8.7443769,217.23456 -7.8629089,216.45815 c 0.322113,-0.28373 10.1856597,-4.89927 21.9189929,-10.25675 39.734852,-19.61223 18.135305,-12.30099 31.999996,-4.12806 8.715741,5.20469 16.413031,7.14572 28.666671,7.22888 12.60831,0.0856 22.122587,-2.19556 30.003709,-7.19362 3.39288,-2.1517 6.88004,-3.49764 7.74925,-2.99096 0.8692,0.50667 0.53037,-0.27917 -0.75296,-1.7463 0,0 16.57295,5.43218 28,10.80946 15.21667,7.16059 31.20526,13.40057 31.88686,14.04012 2.4529,2.30155 -16.66833,15.66269 -32.34315,22.90491 -16.78439,7.75486 -29.46131,9.3756 -51.877039,9.91633 -14.17022,0.34183 -22.48233,-0.0788 -28.51603,-1.44314 z M 25.831141,68.289286 C 38.099784,41.486689 61.13116,24.442051 94.276418,24.442051 c 33.181922,0 41.923242,7.847811 48.588572,39.949328 3.46452,16.685722 10.29527,36.746381 1.66475,50.407861 -3.01234,4.7683 -3.83684,6.8366 -5.98786,11.11456 -0.0995,-0.18333 -0.5913,-11.43333 -1.09296,-25 -0.67449,-18.240952 -1.47798,-25.969174 -3.08442,-29.666664 l -2.17235,-5 h -21.44419 c -28.717069,0 -31.830479,1.31102 -33.983649,14.310124 -1.09859,6.632405 -6.9095,12.356539 -12.54386,12.356539 -5.64375,0 -6.83103,2.24791 -6.83103,12.933341 0,11.23416 -1.60629,12.43523 -7.221829,5.4 -6.207896,-7.77735 6.600381,-25.862705 2.341367,-25.862705 C 36.550594,115.79778 29.85114,98.305159 25.831141,68.289286 Z"
             style="fill:#214478;stroke-width:1.33333337"
             sodipodi:nodetypes="csccccsccccssccssccsccssssscc" />
          <path
             inkscape:connector-curvature="0"
             id="path669"
             d="m 145.24326,220.02536 c -11.966,-5.93156 -24.12979,-12.11735 -27.03064,-13.74624 -9.08819,-5.10322 -3.73546,-3.34593 6.95175,2.28222 5.6043,2.95137 17.15517,8.0469 25.49511,12.0174 12.9995,6.18881 6.60251,2.60276 13.17185,7.98574 -8.73543,-4.52585 -6.62207,-2.60756 -18.58807,-8.53912 z M 8.1122108,217.41698 c 16.5307572,-8.29366 24.6956272,-11.9369 23.0749372,-10.29623 -1.4784,1.49661 -30.9509542,15.38688 -32.1952752,15.19687 -0.4379796,-0.0669 2.230838,-1.44409 9.120338,-4.90064 z M 138.06107,124.11597 c -0.3249,-1.01429 -0.80088,-12.11521 -1.05772,-24.668726 -0.35467,-17.336145 -0.98926,-24.071925 -2.63908,-28.011962 l -2.17213,-5.187394 h -21.20671 c -28.399062,0 -31.477992,1.360157 -33.607322,14.846465 -1.08642,6.880986 -6.83298,12.819651 -12.40494,12.819651 -5.58125,0 -6.75538,2.33216 -6.75538,13.418096 0,11.65522 -1.58851,12.9013 -7.14186,5.60239 -6.13914,-8.06885 -7.76639,-9.33733 -11.97823,-9.33733 -5.81342,0 -9.60828,4.66375 -10.13032,12.44977 -0.22955,3.42369 -1.01072,6.22488 -1.73593,6.22488 -1.88858,0 -8.194798,-14.02769 -9.825098,-21.85518 -0.7605,-3.651336 -1.382729,-11.833731 -1.382729,-18.183091 0,-20.006937 6.349287,-35.825815 20.273747,-50.510876 26.60476,-28.0580066 69.978782,-28.0580066 96.583552,0 13.92446,14.685061 20.27374,30.503939 20.27374,50.510876 0,14.724855 -1.67688,22.771461 -7.04182,33.790611 -4.31871,8.87024 -6.95404,11.51869 -8.05177,8.09182 z"
             style="fill:#2b1100;stroke-width:1.3505491"
             sodipodi:nodetypes="sssccsccccccscscsscsssssssscc" />
        </g>
      </g>
    </g>
  </g>
</svg>
