<?xml version="1.0" encoding="UTF-8"?>
<svg viewBox="0 0 120 55" xmlns="http://www.w3.org/2000/svg">
 <g transform="translate(-214.15 -545.83)">
  <path d="m267.6 575.65c-2.6889 1.1912-5.2486 3.9429-7.3305 7.7392-2.5914 4.7255-4.2845 10.87-4.5543 16.73h34.812c-0.32521-5.7374-1.9912-11.718-4.5231-16.335-1.9444-3.5457-4.3047-6.1722-6.8002-7.4757h-0.0312c-1.5618 0.66029-3.2387 1.0538-5.0222 1.0538-2.3598 0-4.5808-0.64257-6.5506-1.7125z" fill="#ff7f1a" opacity=".99"/>
  <path d="m240.03 576.57c-4.9971 4.884-8.776 14.345-9.514 23.547h22.21c0.26746-6.4431 2.0771-13.054 4.9598-18.311 0.12483-0.22765 0.27651-0.43572 0.40551-0.65866-0.82405-1.3616-1.7356-2.5914-2.6826-3.6555-2.0524 1.3586-4.4251 2.2724-7.0186 2.2724-3.1746 0-6.0666-1.2316-8.3599-3.1945z" fill="#9a9a9a" opacity=".99"/>
  <path d="m298.14 578.58c-2.6243 2.5649-4.8781 6.5394-6.4571 11.032 1.0375 3.3727 1.692 6.9624 1.8716 10.506h26.452c-0.63372-7.9391-3.6349-16.038-7.7672-20.682-1.8844 1.2474-4.0447 2.1077-6.4259 2.1077-2.9148 0-5.568-1.1617-7.6736-2.9639z" fill="#9a9a9a" opacity=".99"/>
  <path d="m274.16 547.81c-6.1694 0-11.167 5.2436-11.167 11.757s4.9979 11.79 11.167 11.79 11.136-5.2765 11.136-11.79-4.9667-11.757-11.136-11.757z" fill="#999898"/>
  <path transform="matrix(-.82533 -.56465 .54841 -.83621 0 0)" d="m-511.08-367.4h0.44709a2.9184 2.9184 0 0 1 2.9184 2.9184v20.961a2.9184 2.9184 0 0 1 -2.9184 2.9184h-0.44709a2.9184 2.9184 0 0 1 -2.9184 -2.9184v-20.961a2.9184 2.9184 0 0 1 2.9184 -2.9184" fill="#9b9b9b" opacity=".99"/>
  <path d="m305.83 556.5c-5.1482 0-9.3189 4.3757-9.3189 9.811s4.1706 9.8384 9.3189 9.8384 9.2928-4.4032 9.2928-9.8384-4.1446-9.811-9.2928-9.811z" fill="#ff7f1a" opacity=".99"/>
  <path d="m248.4 552.7c-5.6072 0-10.15 4.7657-10.15 10.686s4.5424 10.715 10.15 10.715 10.121-4.7957 10.121-10.715-4.5141-10.686-10.121-10.686z" fill="#ff7f1a"/>
  <path transform="matrix(.82533 -.56465 -.54841 -.83621 0 0)" d="m-51.429-678.25a2.865 2.9184 0 0 1 2.865 2.9184v17.627a2.865 2.9184 0 0 1 -2.865 2.9184 2.865 2.9184 0 0 1 -2.865 -2.9184v-17.627a2.865 2.9184 0 0 1 2.865 -2.9184" fill="#9b9b9b" opacity=".99"/>
  <path d="m288.13 573.16c-0.54868-5e-3 -1.1007 0.15865-1.5909 0.49399l-0.4679 0.32933c-1.3071 0.89427-1.6353 2.6988-0.74865 4.0507l5.1469 7.8709c0.38609-0.85077 0.81214-1.6756 1.2477-2.47 0.70345-1.2828 1.4769-2.4832 2.3083-3.5897l-3.5249-5.368c-0.55417-0.84499-1.4562-1.3088-2.3707-1.3173z" fill="#9b9b9b" opacity=".99"/>
 </g>
</svg>
