<?xml version='1.0' encoding='utf-8'?>
<svg xmlns="http://www.w3.org/2000/svg" version="1.1" width="600px" height="976px" viewBox="0 0 600 976"> <g id="layer1"> <g style="fill:rgb(141,63,0); fill-opacity:1.0; stroke-linejoin: miter"> <path d="M302.396,360.30078C299.66937,360.97186,299.13434,361.17853,296.8215,362.36743C295.40616,363.0739,294.00797,363.90112,293.7145,364.1942C291.91885,365.91837,291.52176,366.2632,291.38376,366.2631C291.31473,366.26303,290.90036,366.5906,290.486,366.98715C290.07162,367.40097,289.26016,368.1251,288.70776,368.60782C287.87903,369.33194,287.60272,369.71133,287.25702,370.5911C287.0323,371.1948,286.773,371.85025,286.68668,372.04004C286.39285,372.74725,286.28903,373.16132,285.6312,376.35284C284.99063,379.47537,284.9559,379.78592,284.95377,382.8917C284.95175,385.82486,285.00314,386.35977,285.39886,388.06824C285.65692,389.1209,285.94952,390.17365,286.07013,390.41528C286.44922,391.17474,287.01703,393.5044,287.01648,394.29807C287.01593,395.04,287.0504,395.07455,287.49902,395.07486C288.27545,395.07535,289.01794,394.2822,289.34656,393.10913C290.17688,390.12482,292.85364,386.624,295.51184,385.0557C297.32428,383.95267,298.30798,383.6428,299.79187,383.64383C301.2067,383.6448,302.51773,384.05978,307.037,385.94357C309.7106,387.06686,312.21198,387.84512,313.14368,387.8458C313.54053,387.84604,314.92105,387.53635,316.21536,387.1749C320.33997,385.96994,322.89386,385.5748,323.98056,385.93793C324.8603,386.23187,325.98102,387.4231,326.25647,388.37228C326.5147,389.25247,326.51465,389.30423,325.89166,391.99545C325.38983,394.11737,325.28503,395.998,325.61243,396.56757C325.7848,396.86102,325.81946,396.654,325.83752,395.41174C325.83917,393.0134,326.78955,391.01254,328.22208,390.3752C328.68808,390.16843,328.96432,389.90982,329.03348,389.63382C329.17197,389.03,329.14307,380.83423,328.99042,376.98648L328.8546,373.7944L327.88962,371.89575C326.94193,370.0489,326.87296,369.9453,324.80374,368.09772C322.907,366.40552,322.14822,365.83563,319.64743,364.29834C319.31967,364.091,318.2504,363.40015,317.28464,362.76105C314.99084,361.2411,312.66235,360.08353,311.50647,359.8929C310.9889,359.82352,309.41882,359.7017,307.98676,359.6489L305.416,359.56088L302.396,360.30078 Z"/> </g> <g style="fill:rgb(28,73,88); fill-opacity:1.0; stroke-linejoin: miter"> <path d="M280.46896,381.11148C277.94974,381.29953,266.28534,382.06796,262.78262,382.28986C258.95203,382.54608,254.87984,382.80206,252.25708,382.97278C250.92847,383.0581,248.37473,383.21173,246.563,383.31396C244.76848,383.4336,242.99117,383.58765,242.64607,383.67365C241.95578,383.8457,240.3328,385.43198,236.62036,389.5187C235.63611,390.60498,234.60014,391.69135,234.30663,391.93268C234.03041,392.174,233.40883,392.79474,232.92534,393.31207C230.99141,395.45026,230.0764,396.19153,228.79929,396.67377C227.03888,397.34546,226.19324,397.67276,224.7262,398.29288C224.01859,398.60294,222.7414,399.10245,221.8785,399.44693C221.03279,399.7742,219.87645,400.2393,219.34142,400.46323C217.58092,401.22116,216.3728,401.72067,215.7515,401.94455C215.02664,402.22018,213.49008,403.61676,212.76468,404.68597C212.47107,405.11713,211.60764,406.1518,210.8306,407.01398C210.05359,407.8589,209.24194,408.8418,209.00015,409.1867C208.60287,409.79034,207.60136,410.9629,204.02696,415.01523C203.14632,416.01535,202.2483,417.15347,202.02373,417.533C201.64369,418.2056,201.29765,419.65472,200.89897,422.2771C200.79497,422.98444,200.58711,424.15753,200.46584,424.86493C200.32732,425.57227,200.10207,426.93518,199.94615,427.88403C199.80748,428.83295,199.56483,430.35114,199.4262,431.24823C199.28755,432.1454,199.09694,433.31854,199.01033,433.83603C198.54243,436.82077,198.09192,439.5983,197.86682,440.73697C197.60709,442.0826,197.01799,445.63647,196.65395,448.10358C196.41132,449.67358,196.47993,450.26025,197.15138,452.40027C197.39241,453.17694,197.80548,454.67828,198.0463,455.76544C198.47633,457.66367,198.49345,457.8535,198.37027,461.356C198.31714,463.34018,198.2295,465.32437,198.1947,465.7557C198.14265,466.18698,198.03775,468.20572,197.93283,470.24164C197.82791,472.27753,197.67038,475.53845,197.58276,477.4881C197.47789,479.43774,197.39001,481.76703,197.3549,482.6643L197.31927,484.30334L201.14977,484.237C203.75517,484.18707,205.06645,484.2397,205.2217,484.36053C205.4286,484.53326,214.60754,484.91913,218.55876,484.9218L219.97359,484.9228L220.06026,484.35345C220.1295,484.06018,220.2517,481.9035,220.35686,479.57422C220.54973,475.07104,220.74101,472.93164,221.13908,471.1202C221.2603,470.49918,221.46812,469.41232,221.57213,468.70493C221.67613,467.9976,221.88393,466.91074,222.00513,466.28964C222.43782,464.28842,222.74956,462.61502,222.95753,461.2866C223.06154,460.57925,223.23473,459.6476,223.3213,459.21637C223.42513,458.76782,223.46056,457.45654,223.3925,456.0244C223.27333,453.71222,223.34325,452.36646,223.91827,444.17117L224.16228,440.5997L224.87068,439.16806C225.76912,437.37424,225.92455,437.2018,226.82182,437.08167C229.44475,436.70386,231.13594,436.29095,233.24149,435.49872C233.91458,435.24036,235.15714,434.80975,236.0028,434.5343C236.86569,434.2588,238.50534,433.55255,239.67899,433.00122C240.8354,432.43262,241.9055,431.96747,242.06078,431.9676C242.45763,431.96783,242.2137,435.4704,241.76457,436.19476C241.59184,436.4707,241.2809,437.02258,241.10808,437.40204C240.91801,437.7815,240.57256,438.35062,240.33076,438.67825C240.07173,439.00595,239.8817,439.35086,239.88164,439.45438C239.88158,439.54068,239.77788,439.74765,239.63976,439.88565C239.39803,440.14426,238.79343,441.1791,235.64941,446.62924C234.90659,447.9055,233.87012,449.69925,233.35187,450.5961L232.38452,452.23462L232.41797,453.78748C232.53622,457.4455,232.97928,465.50345,233.11688,466.17642C233.27167,466.9185,235.16458,474.30466,235.71533,476.30646C236.38654,478.75696,237.00671,480.18945,237.48967,480.3969C237.69667,480.48328,238.45558,480.8462,239.1628,481.1745C239.86998,481.52008,241.26714,482.1767,242.26762,482.60876C243.26805,483.05804,245.02737,483.922,246.2002,484.5266C249.02887,485.99518,249.87415,486.2718,252.27238,486.39423C253.35936,486.464,254.68788,486.5512,255.20549,486.586C255.72307,486.6209,258.36288,486.70898,261.0718,486.76263C263.78064,486.8335,266.23068,486.90417,266.50668,486.93884C267.30032,487.0257,272.02792,487.20142,275.47867,487.27283C278.10126,487.32635,283.91614,487.01984,284.12335,486.81293C284.15784,486.77844,284.245,485.51898,284.29785,484.0006L284.42044,481.25726L283.35208,479.18604C282.61124,477.70163,282.30118,476.92502,282.30148,476.44193C282.3018,476.07956,282.57858,474.95822,282.92435,473.975C283.63315,471.92227,283.63327,471.81876,282.78995,468.74686C282.08423,466.15826,282.06805,464.58813,282.7256,461.84515C282.9679,460.7583,283.383,459.39557,283.60767,458.80902C283.84967,458.20532,284.03992,457.498,284.0401,457.22192C284.04053,456.6526,283.69617,455.5653,283.17926,454.51245C282.98975,454.13278,282.49023,452.92465,282.04236,451.83737C281.59448,450.75003,280.6987,448.60977,280.02682,447.09097C278.40744,443.39752,278.39053,442.91437,279.37814,436.9969C279.75928,434.66782,280.24457,431.49338,280.43542,429.92337C280.64362,428.35342,281.11157,425.21347,281.47552,422.93622C281.83942,420.65894,282.238,418.08832,282.32486,417.24295C282.429,416.38028,282.67178,414.56876,282.86252,413.18857C283.0533,411.80838,283.33066,409.87613,283.4694,408.8754C283.60812,407.8748,283.79886,406.47733,283.90283,405.77002C284.14563,404.01025,284.16336,403.23376,283.9565,402.97485C283.24966,402.11163,280.4934,395.7775,280.13214,394.1899C280.02893,393.77567,279.94342,392.61966,279.9441,391.6534C279.94525,389.97977,279.97986,389.80722,280.4809,388.89313C280.7746,388.3412,281.13733,387.7721,281.27542,387.61676C281.4999,387.35815,282.846,386.96222,283.48438,386.96265C283.60516,386.96277,284.0362,387.44617,284.43265,388.03314C284.82904,388.63727,285.12213,388.99982,285.0705,388.84442C284.58838,387.3603,284.39984,385.51398,284.50494,383.2883L284.62732,380.92453L283.6266,380.94113C283.0744,380.95798,281.6595,381.0433,280.46896,381.11148 Z"/> </g> <g style="fill:rgb(255,202,139); fill-opacity:1.0; stroke-linejoin: miter"> <path d="M298.15228,384.2811C296.68536,384.74594,295.30444,385.6077,293.8714,386.95248C291.765,388.95264,290.33142,391.19464,289.6914,393.50623C289.43195,394.4205,289.25922,394.67923,288.6723,395.11014C288.1026,395.52383,287.84375,395.61002,287.37793,395.52335C286.65332,395.41934,286.46375,395.14316,286.58496,394.4703C286.74084,393.60773,285.9488,391.2779,285.03528,389.86243C284.5872,389.17206,284.0529,388.34344,283.84604,388.0327C283.50128,387.49756,283.4323,387.463,282.7248,387.54883C281.79297,387.66888,281.6549,387.78967,280.96393,388.997C280.4975,389.82486,280.411,390.1699,280.3584,391.36032C280.34064,392.11954,280.40887,393.20657,280.5293,393.77603C280.87323,395.41544,282.25134,398.6429,284.3535,402.83704C285.92148,405.90936,286.45547,407.1693,286.93747,408.86053C288.21115,413.3475,290.03806,416.3682,294.96878,422.11725C295.96872,423.27393,297.20993,424.87946,297.7443,425.67346C298.95084,427.5033,299.51987,427.98676,300.58957,428.10828C301.03812,428.17767,301.98703,428.29907,302.69437,428.3858C306.64517,428.92334,308.1122,428.28595,312.2042,424.3203C318.5234,418.1649,318.41983,418.2856,320.0613,414.93942C321.11526,412.81793,321.91025,410.92053,323.1548,407.60864C326.16248,399.60468,327.42416,396.46533,327.82138,395.9652C327.94223,395.8272,328.25327,395.1891,328.4952,394.5681C328.8582,393.67114,328.94485,393.13632,328.9456,392.03207C328.94614,391.25565,328.8948,390.61716,328.82578,390.6171C328.73953,390.61703,328.44608,390.7722,328.1354,390.9445C326.96167,391.6683,326.18372,393.8246,326.182,396.3437C326.1808,398.13812,325.90454,398.36224,325.3188,397.03326C324.81915,395.94586,324.90692,393.82367,325.5816,391.23605C325.99683,389.57993,326.03156,389.28665,325.84216,388.66537C325.41174,387.19843,324.25638,386.3004,322.78986,386.2994C321.6338,386.2986,318.37225,386.9866,315.9217,387.7441C313.4193,388.5189,312.6256,388.4838,309.6758,387.4465C308.46835,387.01425,306.5019,386.27103,305.3117,385.7698C301.25815,384.0762,299.77454,383.76456,298.15228,384.2811 Z"/> </g> <g style="fill:rgb(28,73,88); fill-opacity:1.0; stroke-linejoin: miter"> <path d="M328.85733,394.93066C328.78812,395.20667,328.58072,395.6897,328.35623,396.00006C327.87265,396.72443,327.00854,398.74255,325.67755,402.26147C320.37088,416.33725,319.6625,417.73434,316.17493,421.06204C311.94485,425.09656,310.90884,426.2174,309.9415,427.78687C309.40604,428.63196,308.83597,429.68402,308.66312,430.11523C308.473,430.54645,307.85092,431.89185,307.2462,433.13376C304.68893,438.4636,304.17053,439.61926,303.5136,441.49957C303.13324,442.58624,302.66656,443.81097,302.4937,444.2077C302.30365,444.60443,301.69867,446.24316,301.1454,447.83014C300.57495,449.41708,299.9008,451.2629,299.6415,451.93564C299.39944,452.5911,298.81174,454.1954,298.36224,455.4719L297.53247,457.80054L291.01038,457.84784L284.471,457.87793L284.00433,459.13715C283.745,459.80988,283.31262,461.3452,283.07025,462.53552C282.53363,465.07153,282.56757,465.81354,283.32474,468.88528C283.99582,471.54288,283.9952,472.42288,283.3383,474.23404C282.59494,476.2523,282.6464,476.70096,283.7664,478.9447C284.6279,480.688,284.8003,480.91235,285.73157,481.5686C287.30093,482.67407,291.49158,485.74817,293.38855,487.1643C294.31982,487.8551,295.30286,488.54596,295.59607,488.6842L296.09625,488.96057L301.11932,485.92737C303.86386,484.27283,306.15955,482.91132,306.1941,482.91132C306.24585,482.91138,306.67737,482.65277,307.17798,482.32532C308.71426,481.36008,317.86218,476.65598,321.0725,475.1744C322.33246,474.60587,324.61053,473.74472,326.16376,473.2626C327.71698,472.7806,329.5636,472.17795,330.27112,471.95413C330.97876,471.71304,331.8934,471.43765,332.30753,471.3516C332.7217,471.2484,333.10147,471.0589,333.13602,470.93817C333.1879,470.81738,333.10202,470.24792,332.94705,469.69568C332.80942,469.1435,332.44803,467.76294,332.17276,466.62396C331.8802,465.48486,331.55328,464.15613,331.4156,463.69012C331.2779,463.20697,331.0714,462.36133,330.951,461.7919L330.7447,460.7393L331.7987,458.54868C332.3689,457.34134,332.92175,456.3582,333.02527,456.35825C333.1115,456.3583,333.3357,456.56558,333.50806,456.80722C333.68042,457.0662,334.2494,457.70493,334.76666,458.2402C335.55975,459.06894,336.83508,461.17477,336.83478,461.67514C336.83472,461.74417,337.1104,462.331,337.43774,463.00415C338.21313,464.54028,340.03946,468.44104,340.88358,470.3396C341.22812,471.15076,342.07236,472.96298,342.72702,474.39554C343.3989,475.81076,344.4153,478.03726,345.0184,479.31448C346.27603,482.02426,348.29187,486.33917,349.84247,489.6703C350.84174,491.7932,351.8581,494.17505,352.42645,495.71097C352.56427,496.03897,352.9087,496.97092,353.2187,497.782C354.1832,500.3536,354.76877,501.97592,355.26816,503.39108C355.54367,504.15048,356.0087,505.3586,356.30154,506.06616C356.5944,506.7738,357.02493,507.89563,357.2488,508.56873C357.4727,509.2245,357.8171,510.15643,357.9893,510.6397C358.43716,511.74426,359.2122,513.8153,360.0216,515.98987C360.36603,516.9391,361.00336,518.6132,361.4167,519.70056C361.83008,520.7878,362.36395,522.25476,362.60504,522.9451C362.8288,523.65265,363.13885,524.4292,363.27667,524.7054C363.53516,525.2232,363.8452,526.01715,364.4823,527.9155C364.70618,528.5886,365.05063,529.4861,365.24008,529.9003C365.4296,530.3145,365.82578,531.35004,366.1185,532.21295C367.04837,534.88794,367.4962,536.00977,367.75473,536.3723C367.99606,536.7348,369.238,537.2533,370.7734,537.6512C371.20468,537.7723,371.82565,537.997,372.15335,538.1698L372.75705,538.4808L373.32675,537.9808C373.6721,537.6705,374.06906,537.4809,374.3796,537.48114C374.65567,537.4813,375.2596,537.4128,375.72556,537.3268C376.17422,537.2236,377.0198,537.06885,377.58926,536.9484C378.31403,536.8109,379.69482,536.19073,382.2493,534.8466C384.25146,533.81274,386.11566,532.77875,386.40912,532.5546C386.70258,532.34784,387.82452,531.7274,388.91193,531.19336C389.99933,530.6592,390.9314,530.1767,391.00043,530.1077C391.06952,530.03876,391.13928,528.96906,391.1574,527.7268C391.17596,525.7771,391.12445,525.3801,390.79712,524.6207C389.98743,522.77405,389.88403,522.5496,389.74625,522.2735C389.66006,522.1009,389.59122,521.8938,389.59128,521.7903C389.59134,521.704,389.4019,521.22076,389.17795,520.7202C388.78165,519.84,387.67923,517.1821,386.3701,514.02374C386.04282,513.2125,385.06082,511.07233,384.21652,509.27722C381.23593,502.99484,376.54956,493.10492,375.2057,490.27435C374.68878,489.20422,374.24097,487.99615,374.1723,487.51294C374.12085,487.04706,373.9662,486.167,373.82855,485.54572C373.7082,484.9245,373.51923,483.7684,373.399,482.95737C373.296,482.14627,373.14145,481.0591,373.0555,480.54153C372.96964,480.02383,372.81503,479.0057,372.712,478.29825C372.60898,477.59067,372.4371,476.57266,372.33395,476.0549C372.2308,475.5372,372.09335,474.63995,372.00748,474.0705C371.93887,473.5011,371.78427,472.53473,371.68112,471.9135C371.5953,471.2923,371.4235,470.20514,371.32047,469.49768C370.94272,466.7885,370.6671,466.06354,367.80707,460.00546C367.11792,458.53836,366.08423,456.31192,365.5157,455.0865C364.94714,453.8438,363.9134,451.63452,363.2415,450.16742C360.8123,444.92056,359.98532,443.14285,358.76205,440.5021C358.09018,439.03506,357.0392,436.77408,356.4362,435.49686C355.8504,434.21954,355.19568,432.80432,355.00623,432.3728C354.66168,431.59613,354.6618,431.3546,354.7536,423.366C354.86258,415.4464,354.8455,415.1186,354.5352,414.77325C354.36276,414.5661,353.27634,413.70264,352.13815,412.8391C349.81003,411.07767,349.65488,410.95676,346.79227,408.62552C344.3263,406.62228,344.17114,406.48416,341.27396,404.2565C339.22174,402.68494,338.06635,401.78693,334.72086,399.1447C334.06558,398.6266,332.9446,397.76318,332.25485,397.24506C331.56503,396.70966,330.56485,395.8636,330.03036,395.34558C329.47855,394.82758,329.03024,394.41315,329.01297,394.41315C328.9785,394.4131,328.92654,394.6374,328.85733,394.93066 Z"/> </g> <g style="fill:rgb(4,188,250); fill-opacity:1.0; stroke-linejoin: miter"> <path d="M284.2823,405.97736C284.16077,407.04697,283.98737,408.3582,283.9007,408.8757C283.81412,409.39328,283.71,410.29044,283.6578,410.85983C283.60568,411.42917,283.39755,412.94742,283.22415,414.2241C282.6694,418.01953,282.51324,419.38263,282.5993,419.607C282.63373,419.72772,282.7024,420.2627,282.75378,420.78033C282.8225,421.29797,283.01123,422.78198,283.2002,424.0589C283.7669,427.92422,284.40192,432.85934,284.50446,434.27426C284.60715,435.53387,284.74493,435.8618,285.00403,435.4479C285.10764,435.27542,286.88562,434.1033,288.28375,433.2933C289.0605,432.84525,294.98184,428.24243,296.50113,426.89764C296.8464,426.6046,297.22623,426.32886,297.3643,426.27716C297.51962,426.22552,297.4507,426.01837,297.0715,425.51776C295.95102,424.01587,294.52014,422.23773,293.14093,420.64935C291.2789,418.4913,289.3311,415.712,288.31442,413.72714C287.86642,412.84683,287.03964,410.75858,286.48868,409.05C285.9205,407.35876,285.2488,405.5293,284.9904,404.99426L284.49072,404.02777L284.2823,405.97736 Z"/> </g> <g style="fill:rgb(4,188,250); fill-opacity:1.0; stroke-linejoin: miter"> <path d="M282.02814,422.2464C281.92407,423.00555,281.64667,424.9033,281.40405,426.47324C281.1787,428.04324,280.9359,429.82022,280.86646,430.4413C280.797,431.0624,280.39832,433.70206,279.96524,436.30713C279.49747,439.08472,279.16788,441.62085,279.16733,442.43182C279.1663,443.88116,279.26956,444.24353,280.42392,446.7462C280.73404,447.40207,281.1647,448.4376,281.4058,449.04166L281.83646,450.12894L282.32053,448.749C283.54794,445.2645,285.6202,442.60876,290.83432,437.7812L292.52628,436.22952L291.54407,434.33084C291.00995,433.27792,290.5619,432.4149,290.5274,432.38034C290.5102,432.34586,290.26855,432.51822,289.9923,432.74234C289.71606,432.96646,289.02563,433.41458,288.456,433.74203C287.88635,434.05222,286.7989,434.7416,286.0566,435.24155C285.2971,435.74136,284.5895,436.12054,284.486,436.06866C284.36526,436.03412,284.22757,435.4646,284.15906,434.72256C284.0905,434.03244,283.88452,432.5139,283.71277,431.34048C283.52374,430.18436,283.24915,428.1309,283.0948,426.76773C282.9577,425.42184,282.70013,423.54095,282.52826,422.59186L282.23608,420.86627L282.02814,422.2464 Z"/> </g> <g style="fill:rgb(250,84,34); fill-opacity:1.0; stroke-linejoin: miter"> <path d="M297.03592,427.07056C296.51797,427.4671,291.51154,431.4838,290.97632,431.9493C290.92456,431.98386,291.38977,432.96762,291.9928,434.14133L293.0784,436.28165L291.02383,438.22992C285.70602,443.26447,284.04825,445.3856,282.83817,448.7148C282.54428,449.49106,282.31937,450.37088,282.3192,450.6815C282.31885,451.2336,282.97327,452.994,283.8175,454.71997C284.05878,455.22046,284.29974,456.03162,284.3684,456.53204L284.4713,457.44653L290.8208,457.45087L297.18762,457.4552L297.67175,455.98904C297.93115,455.17825,298.4843,453.66025,298.88187,452.62527L299.60782,450.72787L299.6469,443.99872L299.6861,437.2696L300.44604,436.14865C300.86053,435.5278,301.56863,434.5275,302.03488,433.92392C302.5012,433.30307,302.8467,432.7167,302.795,432.61307C302.7606,432.49234,302.2607,431.78452,301.70908,431.0422C301.15744,430.29996,300.5024,429.38498,300.27835,429.03976C300.03702,428.67728,299.72665,428.3838,299.5886,428.38367C299.2263,428.36615,298.86417,428.05536,298.2781,427.24396L297.76096,426.51898L297.03592,427.07056 Z"/> </g> <g style="fill:rgb(4,188,250); fill-opacity:1.0; stroke-linejoin: miter"> <path d="M309.35507,427.51038C309.30325,427.57935,308.66458,427.94122,307.95694,428.3031L306.64517,428.9406L304.10892,428.85263C302.71133,428.7999,301.36557,428.6954,301.10684,428.62625C300.83078,428.5743,300.62375,428.5914,300.6237,428.66043C300.64084,428.7985,303.84708,433.23495,305.05374,434.78867L305.53653,435.41013L306.1929,434.22006C306.5557,433.58188,307.2814,432.064,307.7999,430.85663C308.31833,429.63196,308.99216,428.3556,309.26846,427.9934C309.56204,427.64856,309.7003,427.3553,309.61398,427.35522C309.52774,427.35516,309.4069,427.42413,309.35507,427.51038 Z"/> </g> <g style="fill:rgb(4,188,250); fill-opacity:1.0; stroke-linejoin: miter"> <path d="M302.5007,434.02774C302.18985,434.47617,301.5335,435.442,301.04993,436.16635L300.1518,437.45978L300.04675,439.7027C299.90686,442.4115,299.92084,447.1046,300.05798,448.39877L300.17816,449.3478L300.766,447.53662C301.07727,446.53607,301.63043,445.01807,301.99335,444.17285C302.35632,443.31036,302.8576,441.9649,303.117,441.15417C303.39362,440.34338,303.98126,438.8772,304.44778,437.87674C304.98343,436.77286,305.26004,435.9966,305.1566,435.8585C305.08768,435.7549,304.7429,435.2543,304.3981,434.73636C304.05344,434.23587,303.6052,433.68338,303.41556,433.5107C303.08792,433.19998,303.05338,433.2172,302.5007,434.02774 Z"/> </g> <g style="fill:rgb(28,73,88); fill-opacity:1.0; stroke-linejoin: miter"> <path d="M332.34177,471.80026C328.13086,473.05692,324.0407,474.36545,323.43668,474.64114C323.03967,474.83066,322.64276,474.98563,322.57373,474.98563C322.43573,474.9855,311.49274,480.4476,310.07742,481.24026C307.59186,482.60168,300.4803,486.8069,297.425,488.7027L296.59644,489.2198L297.94202,489.53125C300.16754,490.01593,300.33997,490.13678,301.0291,491.65564C301.37366,492.3978,301.97668,493.74405,302.39014,494.6415C302.78638,495.53903,303.3032,496.6954,303.52713,497.1959L303.92337,498.12802L303.62833,500.64688C303.47208,502.0444,303.17722,504.33896,302.98642,505.77087C302.5355,509.1524,301.3039,518.6931,300.8354,522.506C300.67926,523.7309,300.48834,525.3354,300.38434,526.0428C299.49994,532.5124,299.06625,535.894,298.4935,540.79376C298.2853,542.5018,298.09445,544.0717,298.0425,544.296C297.99057,544.503,297.79984,545.90045,297.60904,547.4015C297.41818,548.8852,297.22745,550.3517,297.1755,550.62775C297.07162,551.09357,297.1578,551.2316,297.9855,551.93964C300.0548,553.701,300.81372,554.1156,304.33273,555.3085L307.6965,556.4496L309.1633,556.1573C310.87173,555.7961,312.78717,555.45233,314.25397,555.2118C314.82343,555.1087,316.2558,554.73004,317.4466,554.33405L319.60382,553.6453L319.6223,551.88544C319.623,550.91925,319.69553,545.7602,319.7855,540.4115L319.9129,530.69745L320.36185,530.16284C320.6036,529.88696,321.19058,529.3525,321.6912,528.9905C322.1746,528.6285,323.17593,527.7665,323.9183,527.0768C325.196,525.8527,325.2651,525.732,325.85284,524.0759C327.18402,520.2982,327.46063,519.5047,328.2558,517.34845C328.70526,516.1065,329.17206,514.761,329.29315,514.3297C329.6563,513.1049,331.50592,508.08514,332.64667,505.1873C333.04425,504.18686,333.56274,502.91037,333.77014,502.34116C333.99487,501.77188,334.37512,500.80594,334.6344,500.18497C335.101,499.012,337.16022,490.31732,337.16077,489.50635C337.16095,489.24756,337.28217,488.6092,337.4378,488.09167C337.6972,487.2464,337.69733,487.09113,337.4563,486.29724C337.1808,485.45166,336.68158,483.77765,335.61435,480.0845C335.32175,479.03177,334.96024,477.87552,334.82242,477.49588C334.70193,477.11612,334.39218,475.90817,334.15134,474.82095C333.54935,472.11166,333.37717,471.54214,333.2391,471.55936C333.17007,471.5593,332.77322,471.6625,332.34177,471.80026 Z"/> </g> <g style="fill:rgb(28,73,88); fill-opacity:1.0; stroke-linejoin: miter"> <path d="M237.43748,481.018C237.43745,481.06976,237.6786,481.63928,237.97154,482.29523C238.52281,483.50336,239.33171,486.50616,239.67531,488.64584C239.79567,489.30167,240.0537,490.38882,240.2603,491.06186C240.6046,492.23538,240.6216,492.58047,240.64894,503.05386C240.6621,508.98926,240.71031,514.1137,240.72737,514.4416C240.76155,514.92474,240.70964,515.07996,240.39897,515.2178C240.07106,515.3556,240.03648,515.4764,240.08781,516.08026C240.20787,517.1329,240.80669,524.58716,241.11446,528.6766C241.26836,530.6608,241.42229,532.6452,241.49101,533.07654C241.54248,533.50806,241.62457,539.59875,241.68875,546.6212L241.78351,559.38947L242.3873,559.57965C242.74954,559.7007,243.14618,560.01154,243.38751,560.35675C243.59433,560.68475,244.07706,561.25446,244.45639,561.63434C244.83572,562.01416,245.784,563.0501,246.54257,563.9306C247.31839,564.8283,248.05981,565.588,248.19781,565.63983C248.31854,565.6917,248.5427,565.9334,248.68054,566.1923C248.93903,566.6756,249.19763,566.9691,251.38722,569.36896L252.7838,570.9056L255.04417,570.7863C258.823,570.5991,259.80658,570.4445,261.30817,569.7381C266.0373,567.5327,265.70932,567.7396,268.05743,565.48096C269.26605,564.3085,270.73364,562.8774,271.33795,562.3257C272.3048,561.41187,272.46027,561.1532,272.9098,559.84216C273.1864,559.0314,273.67047,557.7204,273.9643,556.90967C274.25815,556.0988,274.69034,554.8914,274.91507,554.2359C275.13986,553.5631,275.5029,552.5971,275.69302,552.07965C276.10788,551.0102,276.88574,548.8539,277.5255,546.9046C277.97504,545.57635,278.1137,544.6102,279.0691,535.3454C279.57272,530.5663,279.79764,529.6175,281.0935,527.03033C281.92285,525.35724,281.92316,524.9086,281.2531,520.76715C281.14996,520.1977,280.94397,518.6965,280.78946,517.4367C280.46347,514.81384,280.44614,514.9691,281.67715,506.27393C281.8159,505.2215,282.05862,503.51352,282.19736,502.47842C282.33615,501.42593,282.56155,499.80423,282.70023,498.85532C283.42822,493.99014,284.2782,487.39966,284.17474,487.33057C284.14026,487.29608,283.41553,487.3473,282.55273,487.45026C280.01624,487.74182,269.5602,487.64832,264.1772,487.2824C263.65955,487.24756,261.14053,487.17676,258.56973,487.10596C253.18648,486.9815,250.01184,486.77228,249.1666,486.47833C248.83884,486.35736,247.40723,485.66626,245.97562,484.95776C244.56128,484.23224,242.80196,483.38556,242.09477,483.05725C241.38756,482.74622,240.21465,482.1933,239.50743,481.83038C238.19658,481.17383,237.4376,480.87994,237.43748,481.018 Z"/> </g> <g style="fill:rgb(28,73,88); fill-opacity:1.0; stroke-linejoin: miter"> <path d="M284.71207,483.742C284.71127,484.86353,284.65875,486.0368,284.6068,486.33014L284.50287,486.865L285.2277,486.60657C285.62466,486.4688,286.2114,486.34845,286.50473,486.34863C286.98782,486.349,290.28278,487.24847,292.9566,488.09576C293.5603,488.30322,294.07788,488.42438,294.12964,488.38983C294.18146,488.32092,293.52612,487.82007,288.93887,484.48688C287.80063,483.6579,286.49002,482.69073,286.02438,482.32813C284.73096,481.34363,284.71368,481.37817,284.71207,483.742 Z"/> </g> <g style="fill:rgb(255,202,139); fill-opacity:1.0; stroke-linejoin: miter"> <path d="M204.92683,486.56888C204.77089,487.51773,204.4073,489.36368,204.1303,490.69205C203.85332,492.02048,203.54167,493.5731,203.43776,494.14243C202.93556,496.79922,202.52017,498.64517,202.36478,498.83487C202.27844,498.93832,202.15723,499.55942,202.10501,500.215L202.00067,501.4055L203.7945,502.28662C205.84708,503.28876,207.69278,503.94562,209.29721,504.25732C209.9183,504.36127,211.28119,504.65558,212.31628,504.88055C213.36865,505.1228,214.43826,505.34784,214.71426,505.39984C214.99031,505.4345,215.40431,505.5556,215.62856,505.64203C215.97356,505.76306,216.05986,505.7113,216.37086,505.10767C216.56093,504.7282,216.71648,504.3487,216.71657,504.2279C216.71663,504.1244,216.32027,503.3994,215.85493,502.60544C214.83807,500.96567,214.76932,500.60324,214.94347,498.29135L215.08264,496.58316L215.68668,496.37656C216.41156,496.1182,218.82759,495.447,218.98286,495.44705C219.1209,495.44717,221.03441,497.9504,221.37907,498.58902L221.6548,499.08957L222.01787,498.0029C222.22533,497.39908,222.67479,496.1398,223.02055,495.19107C223.38353,494.24234,223.69475,493.31082,223.74663,493.12106C223.81587,492.8278,222.5237,490.08347,220.92113,487.08017C220.8177,486.8903,220.5937,486.4243,220.4387,486.0274L220.14586,485.3197L215.03873,485.1955C212.20905,485.14178,208.8618,485.0359,207.5678,484.98328L205.23857,484.86087L204.92683,486.56888 Z"/> </g> <g style="fill:rgb(135,128,121); fill-opacity:1.0; stroke-linejoin: miter"> <path d="M217.671,496.25717C217.20502,496.41208,216.49747,496.61862,216.1178,496.73917L215.42749,496.94577L215.37437,498.87827L215.32127,500.8279L216.57942,502.9165C217.26878,504.073,217.92372,505.1432,218.00987,505.3158C219.69878,508.1985,220.88805,510.07996,221.14668,510.33893C221.85368,510.97784,224.88968,512.01514,226.04572,512.0159C226.97745,512.0166,229.49698,511.41443,230.35999,510.96643C231.53369,510.3806,231.36151,509.88013,229.63684,508.72284C229.15393,508.39465,227.6539,506.85803,226.27463,505.287C222.7748,501.3162,222.44719,500.98807,222.06752,501.0914C221.68785,501.19467,221.42934,500.78036,221.27477,499.76224C221.15446,499.0203,220.37889,497.72562,219.36168,496.58615C219.05135,496.2408,218.74095,495.96457,218.67192,495.98178C218.60292,495.98172,218.15422,496.11942,217.671,496.25717 Z"/> </g> <g style="fill:rgb(135,128,121); fill-opacity:1.0; stroke-linejoin: miter"> <path d="M197.91292,499.24588C197.58493,499.4872,196.9634,500.0389,196.53175,500.45273C196.10011,500.86655,195.23683,501.69418,194.58076,502.28027C193.33768,503.43542,193.11307,503.84943,191.52277,508.1101C191.15977,509.05884,190.65852,510.3698,190.39923,511.04254C190.13998,511.69806,189.6214,513.0608,189.24112,514.0612C188.86084,515.06177,188.446,516.14844,188.30774,516.4762C188.1176,516.97644,187.49469,519.5124,186.26595,524.9294C185.88521,526.5856,183.20296,538.04047,182.68384,540.19684C182.42426,541.3354,182.19919,542.4395,182.18181,542.62933C182.1815,543.07794,183.18176,543.7688,185.11363,544.6501C185.83807,544.9784,186.94193,545.5658,187.58008,545.9631C188.2182,546.3431,188.80464,546.6713,188.87366,546.6714C189.01169,546.67145,189.8051,547.0861,192.1853,548.34735C192.89247,548.72736,194.37582,549.45306,195.46251,549.95416C196.5492,550.43805,197.84286,551.0256,198.30856,551.25024C198.7915,551.47485,199.36073,551.6995,199.60228,551.76874C199.84377,551.83795,200.3095,552.0453,200.63719,552.2181C201.68935,552.75366,203.86269,553.7559,204.00072,553.756C204.08699,553.75604,205.03572,554.1535,206.13963,554.6374C207.24355,555.104,208.95119,555.8644,209.95168,556.2964C210.9521,556.7284,212.31479,557.3333,212.97021,557.64435L214.17767,558.1973L214.4551,556.1787C214.78453,553.8324,214.80186,553.7289,215.47635,551.4346C216.01254,549.5542,217.55186,544.1546,218.41673,540.99774C219.31613,537.78906,220.62979,534.4427,222.59958,530.30304C224.27563,526.8016,224.94952,525.37,225.58896,523.9211C227.78363,518.9706,228.64713,517.79785,230.94269,516.74695C233.58339,515.52374,235.27464,515.059,237.32793,514.95685C238.65654,514.88873,239.12245,514.82,238.88097,514.7164C238.69124,514.63,238.31181,514.37085,238.05315,514.14636C237.77727,513.92194,237.34605,513.6973,237.10454,513.6282C236.1902,513.4032,234.89662,512.7295,233.8102,511.90057C233.20659,511.45154,232.44781,510.8988,232.15463,510.6916C231.60275,510.31165,231.58551,510.31158,231.499,510.65668C231.29141,511.43292,227.37387,512.638,225.64856,512.4643C224.57889,512.36005,221.73262,511.3573,221.02556,510.83917C220.6634,510.56287,219.14662,508.24982,218.40569,506.83447C218.28505,506.6101,217.94035,506.0232,217.63008,505.57434L217.09581,504.72858L216.73299,505.43573C216.30101,506.28088,216.1975,506.29803,213.95486,505.72717C213.0578,505.50226,211.57413,505.1906,210.67703,505.01746C209.7799,504.86157,208.26181,504.49823,207.31302,504.20422C205.55347,503.68542,201.72429,501.92294,201.60371,501.5778C201.56929,501.4742,201.60423,500.83585,201.67375,500.14566L201.81264,498.90347L200.17351,498.85056C198.63791,498.79776,198.49985,498.83224,197.91292,499.24588 Z"/> </g> <g style="fill:rgb(135,128,121); fill-opacity:1.0; stroke-linejoin: miter"> <path d="M235.257,515.59393C234.8773,515.74896,234.03163,516.0589,233.35857,516.2828C231.46014,516.9716,229.64783,517.9021,229.00894,518.5401C228.491,519.0574,226.36588,523.14514,225.24255,525.8188C225.05246,526.25,224.4477,527.50916,223.91205,528.63025C221.59674,533.33905,219.86841,537.63416,218.84793,541.22235C218.53658,542.3781,217.60258,545.65576,216.78966,548.50214C215.45789,553.1771,215.18105,554.3502,214.8863,556.35156C214.71301,557.5247,214.45197,560.75116,214.3469,562.9941C214.29428,564.21906,214.13736,566.60004,213.9982,568.2563C213.85904,569.91266,213.71957,571.96576,213.65,572.8285C213.59766,573.67395,213.40634,575.89954,213.21524,577.7456C213.04141,579.5917,212.79803,582.266,212.69354,583.69794C212.57178,585.11273,212.4325,586.90704,212.36295,587.6662L212.25851,589.0465L216.14104,588.5833C218.2807,588.34314,221.7318,587.9314,223.81975,587.6741C225.9077,587.43396,228.94466,587.07367,230.54942,586.88495C232.17143,586.7135,234.27663,586.4561,235.2257,586.3533L236.98575,586.1474L237.08994,585.164C237.15936,584.61194,237.36731,583.3007,237.54059,582.21387C237.73114,581.1442,238.00835,579.4535,238.14705,578.4528C238.40715,576.6241,238.63242,575.1749,238.92691,573.44965C239.01355,572.9321,239.16959,571.8797,239.27362,571.1206C239.37766,570.3615,239.5683,569.1538,239.70682,568.44653C239.82806,567.73914,240.01865,566.635,240.12262,565.97943C240.22656,565.3411,240.39978,564.3404,240.48645,563.73663C241.40482,558.12964,241.35242,558.9923,241.3428,547.88055C241.33026,541.03064,241.26428,536.63086,241.11015,534.9743C240.99031,533.59393,240.83638,531.55774,240.78539,530.43616C240.71715,529.3147,240.6316,528.26215,240.59721,528.1068C240.58006,527.95154,240.49446,527.0025,240.4261,526.0017C240.15306,521.6017,239.67384,515.8902,239.57054,515.59686C239.46721,515.3379,239.20839,515.3032,237.69002,515.31946C236.58574,515.33594,235.68849,515.4217,235.257,515.59393 Z"/> </g> <g style="fill:rgb(4,188,250); fill-opacity:1.0; stroke-linejoin: miter"> <path d="M388.98065,531.67645C387.82416,532.2623,386.66772,532.8999,386.39148,533.10675C385.44208,533.7618,378.98676,537.10474,378.27917,537.2768C377.41635,537.5005,375.43192,537.82697,374.93155,537.8266C374.70724,537.8265,374.2067,538.03314,373.79245,538.2745L373.033,538.70526L373.58456,539.4476C374.20517,540.29346,375.87735,542.43414,376.84274,543.6598C377.20474,544.10864,377.8081,544.9028,378.17004,545.42065C379.1698,546.85345,379.25604,546.9053,380.03284,546.4744C380.39526,546.28485,381.1892,545.8886,381.8106,545.59564C382.43195,545.3028,383.2777,544.872,383.70923,544.648C384.14075,544.424,384.7276,544.1311,385.00372,543.9932C385.5733,543.7176,387.4547,542.7354,389.35333,541.7187C390.0265,541.3568,391.18304,540.5121,391.90826,539.8397L393.2204,538.61554L392.36005,535.1641C391.87823,533.26587,391.48254,531.592,391.48267,531.43665C391.48273,531.29865,391.3794,531.0397,391.27594,530.88434C391.0691,530.6427,390.84473,530.7115,388.98065,531.67645 Z"/> </g> <g style="fill:rgb(255,202,139); fill-opacity:1.0; stroke-linejoin: miter"> <path d="M387.93762,543.029C386.7121,543.6839,385.34857,544.3731,384.91705,544.56256C384.48553,544.76935,383.8297,545.09674,383.44995,545.28625C383.07025,545.49304,382.37982,545.83765,381.89655,546.07886C379.4629,547.2504,379.49744,547.2332,379.3587,548.1304C379.27216,548.5789,379.13354,549.45886,379.04688,550.07996C378.94293,550.70105,378.78693,551.73615,378.68292,552.409C378.49225,553.73737,378.2843,555.08307,378.00696,556.8428C377.92023,557.49835,377.76428,558.49896,377.66034,559.0856C377.57367,559.6894,377.34833,561.2421,377.14032,562.5533C376.94965,563.86444,376.67273,565.2102,376.53442,565.5552C376.3789,565.90015,375.9983,567.3838,375.66943,568.8673C375.3233,570.35095,374.94275,571.8346,374.80444,572.16235C374.6662,572.49005,374.42407,573.35254,374.2683,574.05994C373.9914,575.2848,373.33466,576.7854,372.4192,578.2686L372.00467,578.9241L372.41815,579.75244C372.9351,580.8054,373.40085,580.9438,375.0403,580.5308C376.17926,580.25543,376.2483,580.20374,376.78375,579.35864C377.09464,578.8585,377.52646,578.18585,377.751,577.84094C377.97556,577.51324,378.16562,577.1166,378.16568,576.9613C378.1658,576.806,378.23495,576.6335,378.32126,576.5818C378.40756,576.5301,378.52853,576.2368,378.58054,575.9263C378.70175,575.2362,379.44498,573.4078,379.68668,573.1664C379.9457,572.9078,380.20438,573.13226,380.32468,573.77075C380.39352,574.0641,380.53122,574.4783,380.6519,574.6682C380.77255,574.85803,381.03085,575.5484,381.25473,576.22144C381.46133,576.87726,381.82297,577.86096,382.0469,578.3788C382.2709,578.89655,382.75314,580.13916,383.13205,581.1402C383.51096,582.1412,384.02768,583.4873,384.28598,584.1604C384.54434,584.8162,385.0438,586.14514,385.40555,587.09436C385.76718,588.0436,386.35284,589.5624,386.71454,590.4772L387.3863,592.13403L388.93915,592.2386C389.78455,592.29095,390.50922,592.3259,390.54376,592.2915C390.56104,592.25696,390.50952,591.8946,390.42352,591.48047C389.9762,589.56494,389.04752,585.12994,388.9617,584.4224C388.89304,583.991,388.58353,582.4035,388.25674,580.8849C387.19034,575.984,387.2075,576.1393,387.5353,576.1395C387.63882,576.1396,387.84573,576.39856,387.96628,576.69196C388.2247,577.3305,389.1205,579.33264,390.3093,581.9215C390.73996,582.87085,391.1017,583.751,391.10165,583.8545C391.10153,583.9753,391.44604,584.78644,391.85956,585.6667C392.273,586.54694,392.91052,587.92773,393.255,588.73895C393.59955,589.5501,394.13367,590.7065,394.42657,591.3278L394.9779,592.44977L396.8413,592.50275L398.722,592.55585L398.6015,592.1589C398.53265,591.9346,398.20544,590.98535,397.8783,590.03613C397.5511,589.087,397.20673,588.01697,397.12073,587.63727C397.03473,587.2749,396.87976,586.82623,396.7763,586.65356C396.6902,586.4637,396.3802,585.60077,396.10474,584.72064C395.82928,583.8577,395.41608,582.58075,395.1922,581.9249C394.9511,581.25183,394.65836,580.3716,394.5206,579.94006C394.36563,579.50867,393.93515,578.21436,393.53915,577.04083C392.81595,574.84906,392.71274,574.4176,392.9888,574.4178C393.07504,574.4179,395.05673,578.1978,397.4001,582.8236C399.74353,587.46655,401.67334,591.26385,401.6906,591.28107C401.7768,591.38464,403.52008,590.5577,403.52014,590.4196C403.5202,590.3333,403.41687,590.0227,403.27905,589.7293C403.14124,589.41864,402.7967,588.59015,402.48657,587.88245C401.64252,585.89777,400.52277,583.3089,399.19623,580.32294C399.024,579.92596,398.86896,579.4945,398.86902,579.3737C398.86914,579.2702,398.55908,578.5108,398.19727,577.69965C397.2325,575.594,395.94052,572.6081,395.94058,572.4701C395.94064,572.40106,396.04422,572.3494,396.165,572.3495C396.2858,572.34955,396.59604,572.76385,396.82004,573.24713C397.06125,573.7477,398.83594,577.3033,400.76587,581.15234C403.95343,587.5039,404.28088,588.10803,404.4364,587.7113C404.5401,587.4698,404.851,587.00415,405.11005,586.65924C405.36914,586.31433,405.5937,585.9004,405.5938,585.7451C405.59393,585.58984,405.35278,584.91675,405.06,584.2264C404.7671,583.536,404.4226,582.6903,404.30206,582.3624C404.18152,582.03455,403.87146,581.27515,403.6303,580.70557C403.3891,580.1188,403.1825,579.5665,403.18256,579.4457C403.18262,579.3422,402.99316,578.85895,402.76917,578.35846C402.54523,577.858,402.04572,576.63257,401.6668,575.63153C401.2879,574.63055,400.73676,573.19806,400.4267,572.43866C399.41046,569.88434,398.68726,567.7789,398.34308,566.39825C398.17108,565.639,397.93005,564.8279,397.8267,564.5862C397.7233,564.3446,397.44785,563.44714,397.22415,562.60156C396.3293,559.16736,395.96786,557.83856,395.2792,555.6123C394.88327,554.3352,394.48727,553.09265,394.38388,552.851C394.28055,552.6094,393.9706,551.7119,393.6951,550.86633C393.43686,550.0035,393.02362,548.7608,392.79974,548.10504C392.55865,547.432,392.0077,545.75793,391.54282,544.34283C390.94022,542.47894,390.6473,541.80585,390.45755,541.82294C390.3023,541.8229,389.18036,542.3742,387.93762,543.029 Z"/> </g> <g style="fill:rgb(135,128,121); fill-opacity:1.0; stroke-linejoin: miter"> <path d="M183.57774,545.0113C183.75003,545.39105,183.90498,545.8743,183.90488,546.0468C183.90462,546.4092,183.50687,547.7202,182.69435,550.03174C182.43501,550.7908,182.05463,551.94653,181.8471,552.61926C181.63962,553.2748,181.36296,554.1028,181.24197,554.43054C181.10371,554.7583,180.67145,556.08655,180.27371,557.3631C179.87599,558.63965,179.40913,560.0714,179.23625,560.55444C178.82144,561.6066,178.5275,562.5209,177.93945,564.522C177.6801,565.3673,177.40349,566.14355,177.33441,566.247C177.26534,566.33325,177.14432,566.6783,177.07509,566.9888C176.9885,567.4545,177.02289,567.6099,177.3678,567.88617C177.5747,568.0761,177.91966,568.2662,178.1094,568.3353C178.29918,568.3872,178.69586,568.61176,178.97179,568.83624C179.26495,569.0435,179.7996,569.389,180.17906,569.59625C180.5585,569.8036,181.17938,570.20087,181.55878,570.49445C181.93819,570.7708,182.55907,571.168,182.93852,571.3581C183.31798,571.56537,184.05959,571.99725,184.57698,572.3427C185.09436,572.6882,185.8015,573.12,186.12918,573.3272C187.18124,573.98364,189.11288,575.1755,190.13045,575.81464C190.6651,576.1601,191.78613,576.8682,192.61398,577.3864C193.44183,577.9046,194.44214,578.5265,194.83882,578.7683C195.2355,579.0102,195.82191,579.35565,196.1151,579.5456C199.34026,581.53204,199.8232,581.82574,201.42712,582.8448C202.01352,583.2076,202.99658,583.8294,203.61746,584.2094C204.23837,584.5894,205.39389,585.3149,206.17001,585.8158C206.96332,586.31665,207.96365,586.92126,208.39484,587.1458C208.82605,587.3704,209.2572,587.66406,209.3779,587.7849C209.60199,588.06116,211.62012,589.0633,211.72372,588.9426C211.8273,588.8392,212.12262,585.90607,212.34903,582.835C212.55817,579.83295,212.87119,576.2788,212.95782,575.69226C212.9925,575.46796,213.11441,573.8462,213.21912,572.069C213.32388,570.30914,213.44571,568.7391,213.48032,568.6011C213.51492,568.4631,213.60178,567.63495,213.65411,566.7895C213.86337,563.5976,214.09048,559.5258,214.09079,559.0944C214.09106,558.6631,213.67712,558.404,211.59,557.53986C211.40024,557.4534,209.77882,556.7449,207.96764,555.94995C206.17378,555.1551,204.37987,554.39465,204.00035,554.2736C203.62086,554.1525,203.03438,553.92786,202.70665,553.75507C201.68901,553.23676,199.44667,552.2,199.32591,552.1999C199.25688,552.1999,198.77393,551.9752,198.23923,551.716C197.70454,551.43964,196.98009,551.11127,196.61783,550.99023C195.89331,550.76544,191.44322,548.5711,190.46014,547.9838C190.13245,547.77655,189.5115,547.4655,189.08028,547.27545C188.64906,547.0853,187.8384,546.65344,187.26926,546.3079C186.70009,545.97974,185.56174,545.37506,184.7338,544.99493L183.25043,544.28644L183.57774,545.0113 Z"/> </g> <g style="fill:rgb(0,0,0); fill-opacity:1.0; stroke-linejoin: miter"> <path d="M297.01932,551.93896C296.96744,552.07697,296.7419,553.854,296.48172,555.8898C296.23874,557.92566,295.99588,559.80615,295.94394,560.06494C295.8574,560.4617,295.96085,560.59985,296.59897,561.01434C297.0129,561.27344,298.22006,562.13696,299.28925,562.9314C301.3932,564.5202,301.1344,564.451,303.15344,564.0728C303.89545,563.93524,303.84375,563.8317,304.2389,566.3338C304.56525,568.439,304.75446,569.3019,305.2021,570.7515C305.51196,571.7525,305.66705,572.0287,306.09827,572.2705C306.3742,572.426,307.01242,572.8061,307.49527,573.1343C309.40964,574.37787,310.9103,575.00006,313.72232,575.6576C318.22488,576.6959,318.5527,576.74786,322.5729,576.8542L326.40323,576.9604L327.78403,576.2712C328.5435,575.892,329.1649,575.5129,329.16495,575.42664C329.165,575.3231,328.7355,572.71747,328.20273,569.594C327.54974,565.7114,327.15424,563.7787,326.93018,563.41614C326.7578,563.12274,326.20636,562.1561,325.72388,561.25854C325.22412,560.36096,324.7243,559.498,324.60364,559.3599C324.4829,559.22174,324.0349,558.39325,323.60413,557.54755C322.94934,556.30475,322.65625,555.9077,322.0699,555.5278C321.656,555.2686,321.01788,554.8196,320.62122,554.526L319.91418,553.99066L318.63702,554.4384C316.94574,555.0411,314.6505,555.62616,312.52795,555.987C311.5789,556.15894,310.33646,556.39966,309.76694,556.5373C307.886,556.9846,307.78247,556.9673,305.62613,556.2411C304.48764,555.84344,302.93512,555.3248,302.1761,555.08276C300.70984,554.6159,299.22662,553.70044,297.91617,552.4745C297.34714,551.9564,297.0712,551.7837,297.01932,551.93896 Z"/> </g> </g> </svg>