<?xml version="1.0" standalone="no"?>
<!DOCTYPE svg PUBLIC "-//W3C//DTD SVG 20010904//EN"
 "http://www.w3.org/TR/2001/REC-SVG-20010904/DTD/svg10.dtd">
<svg version="1.0" xmlns="http://www.w3.org/2000/svg"
 width="3000.000000pt" height="3000.000000pt" viewBox="0 0 3000.000000 3000.000000"
 preserveAspectRatio="xMidYMid meet">

<g transform="translate(0.000000,3000.000000) scale(0.100000,-0.100000)"
fill="#000000" stroke="none">
<path d="M17495 23509 c-143 -14 -352 -56 -481 -95 -562 -170 -1069 -542
-1393 -1022 -61 -90 -131 -228 -131 -258 0 -36 51 -84 87 -84 35 0 50 15 133
135 165 238 413 512 586 648 323 253 703 413 1138 477 130 20 175 22 355 17
370 -10 651 -79 981 -243 584 -290 1016 -805 1194 -1426 52 -180 67 -291 73
-518 10 -388 -43 -703 -193 -1150 -331 -982 -897 -1894 -1659 -2669 -231 -235
-412 -400 -645 -586 -685 -549 -1343 -905 -2345 -1271 -11 -4 3 11 31 34 121
98 204 255 204 387 0 73 -25 120 -80 147 -82 42 -177 9 -293 -101 l-74 -71 -6
67 c-8 87 -45 160 -107 216 -115 103 -188 94 -221 -27 -15 -56 -5 -296 15
-361 8 -27 14 -50 13 -51 -4 -4 -418 264 -528 342 -438 311 -1065 900 -1525
1434 -751 871 -1184 1710 -1343 2605 -53 300 -56 332 -56 660 1 272 3 328 23
454 82 516 234 809 610 1169 402 385 911 663 1400 763 126 26 466 37 609 20
490 -60 938 -289 1215 -621 44 -52 100 -129 126 -170 61 -100 71 -111 100
-108 45 5 49 30 17 100 -59 125 -164 268 -290 393 -274 275 -611 441 -1034
512 -133 22 -472 25 -606 5 -422 -64 -818 -213 -1200 -452 -510 -320 -820
-649 -974 -1035 -77 -193 -129 -415 -157 -666 -21 -192 -15 -706 10 -884 115
-809 429 -1554 976 -2315 532 -739 1394 -1598 2107 -2098 125 -87 333 -221
403 -258 l35 -19 -50 -6 c-27 -3 -58 -9 -68 -13 -21 -10 -33 -54 -20 -75 13
-21 97 -50 147 -51 l39 0 -50 -52 c-75 -80 -135 -167 -182 -262 -73 -151 -87
-216 -57 -274 22 -42 194 -205 265 -250 126 -82 259 -109 318 -66 83 61 204
268 239 409 11 42 18 110 18 171 l1 102 34 -30 c18 -16 44 -34 56 -40 44 -20
129 -240 167 -433 30 -146 32 -444 5 -608 -68 -403 -221 -795 -488 -1242 -42
-71 -191 -302 -331 -511 -334 -501 -470 -729 -572 -965 -230 -533 -231 -969
-2 -1369 71 -124 164 -250 349 -472 260 -312 336 -420 417 -591 80 -167 95
-240 95 -452 0 -162 -3 -191 -27 -287 -89 -350 -271 -646 -709 -1148 -297
-340 -398 -468 -524 -665 -191 -298 -300 -601 -345 -960 -15 -118 -15 -442 0
-575 45 -404 161 -793 353 -1185 98 -200 149 -287 283 -490 151 -229 155 -232
190 -220 52 18 44 47 -61 226 -195 333 -391 753 -485 1039 -50 152 -108 393
-132 545 -30 190 -32 564 -5 730 52 319 152 571 338 855 109 168 195 277 460
586 260 303 357 425 464 584 90 134 212 377 253 505 57 174 67 242 66 455 0
176 -3 204 -26 290 -52 191 -126 343 -256 520 -30 41 -139 175 -240 297 -291
349 -381 486 -446 683 -48 145 -60 241 -53 429 10 283 91 534 286 896 86 159
160 278 381 615 265 403 337 518 447 717 202 362 324 693 380 1028 14 86 18
162 18 345 -1 217 -3 245 -28 364 -28 132 -77 277 -128 378 -33 65 -35 78 -14
78 22 0 38 38 31 75 -9 47 -55 105 -123 156 l-60 45 131 33 c1098 279 2375
1107 3267 2117 653 740 1142 1593 1437 2506 220 679 241 1244 66 1774 -301
907 -1071 1555 -2024 1699 -126 19 -469 27 -595 14z m-2684 -7418 c72 -74 88
-129 69 -237 -14 -79 -60 -216 -75 -221 -5 -1 -20 5 -32 15 -33 25 -53 130
-60 308 -6 151 1 194 29 194 7 0 38 -26 69 -59z m520 -157 c18 -22 5 -98 -29
-167 -45 -91 -127 -169 -229 -219 l-84 -40 -40 26 -40 27 27 49 c38 70 143
198 221 269 83 77 141 95 174 55z m-523 -569 c96 -23 205 -76 231 -114 74
-103 66 -310 -19 -482 -17 -35 -39 -74 -49 -87 l-17 -24 -35 68 c-69 137 -182
218 -348 251 -65 13 -78 19 -74 32 18 51 136 288 164 326 37 51 47 53 147 30z
m-263 -505 c117 -25 151 -37 201 -71 72 -49 163 -172 150 -204 -10 -26 -74
-17 -153 21 -58 28 -98 58 -184 141 -60 58 -109 112 -109 119 0 17 -11 18 95
-6z"/>
<path d="M18944 20867 c-105 -27 -201 -107 -279 -232 -24 -38 -87 -177 -140
-309 -175 -437 -374 -842 -498 -1016 -121 -168 -450 -603 -586 -772 -238 -297
-387 -465 -625 -703 -485 -485 -757 -666 -1119 -744 -83 -18 -167 -29 -607
-76 -223 -23 -333 -71 -395 -170 -29 -46 -30 -54 -30 -159 0 -106 1 -114 34
-179 68 -136 228 -274 391 -336 128 -50 232 -64 410 -58 306 12 670 124 1075
331 280 143 542 319 800 534 135 113 498 480 615 622 406 490 757 1071 1107
1830 244 528 293 687 293 944 0 145 -13 212 -59 311 -37 81 -81 129 -145 160
-64 31 -167 41 -242 22z"/>
</g>
</svg>
