<?xml version="1.0" encoding="UTF-8" standalone="no"?>
<svg
   xmlns:dc="http://purl.org/dc/elements/1.1/"
   xmlns:cc="http://creativecommons.org/ns#"
   xmlns:rdf="http://www.w3.org/1999/02/22-rdf-syntax-ns#"
   xmlns:svg="http://www.w3.org/2000/svg"
   xmlns="http://www.w3.org/2000/svg"
   viewBox="0 0 720 720"
   height="720"
   width="720"
   xml:space="preserve"
   id="svg2"
   version="1.1"><metadata
     id="metadata8"><rdf:RDF><cc:Work
         rdf:about=""><dc:format>image/svg+xml</dc:format><dc:type
           rdf:resource="http://purl.org/dc/dcmitype/StillImage" /></cc:Work></rdf:RDF></metadata><defs
     id="defs6"><clipPath
       id="clipPath18"
       clipPathUnits="userSpaceOnUse"><path
         id="path16"
         d="M 0,540 H 540 V 0 H 0 Z" /></clipPath></defs><g
     transform="matrix(1.3333333,0,0,-1.3333333,0,720)"
     id="g10"><g
       id="g12"><g
         clip-path="url(#clipPath18)"
         id="g14"><g
           transform="translate(438.9346,269.0444)"
           id="g20"><path
             id="path22"
             style="fill:#fbcf31;fill-opacity:1;fill-rule:nonzero;stroke:none"
             d="m 0,0 c 0,-93.3 -75.635,-168.935 -168.935,-168.935 -93.3,0 -168.935,75.635 -168.935,168.935 0,93.3 75.635,168.935 168.935,168.935 C -75.635,168.935 0,93.3 0,0" /></g><g
           transform="translate(438.9346,269.0444)"
           id="g24"><path
             id="path26"
             style="fill:none;stroke:#000000;stroke-width:7;stroke-linecap:butt;stroke-linejoin:miter;stroke-miterlimit:10;stroke-dasharray:none;stroke-opacity:1"
             d="m 0,0 c 0,-93.3 -75.635,-168.935 -168.935,-168.935 -93.3,0 -168.935,75.635 -168.935,168.935 0,93.3 75.635,168.935 168.935,168.935 C -75.635,168.935 0,93.3 0,0 Z" /></g><g
           transform="translate(304.7119,313.2183)"
           id="g28"><path
             id="path30"
             style="fill:none;stroke:#000000;stroke-width:7;stroke-linecap:round;stroke-linejoin:round;stroke-miterlimit:10;stroke-dasharray:none;stroke-opacity:1"
             d="m 0,0 c 0,25.221 16.134,45.63 36.072,45.63 h 5.042 C 61.053,45.63 77.187,25.221 77.187,0" /></g><g
           transform="translate(158.126,313.2183)"
           id="g32"><path
             id="path34"
             style="fill:none;stroke:#000000;stroke-width:7;stroke-linecap:round;stroke-linejoin:round;stroke-miterlimit:10;stroke-dasharray:none;stroke-opacity:1"
             d="m 0,0 c 0,25.221 16.134,45.63 36.073,45.63 h 5.041 C 61.053,45.63 77.187,25.221 77.187,0" /></g><g
           transform="translate(372.7764,237)"
           id="g36"><path
             id="path38"
             style="fill:#ed5f79;fill-opacity:1;fill-rule:nonzero;stroke:none"
             d="m 0,0 c 0,-56.755 -46.009,-102.764 -102.764,-102.764 -56.755,0 -102.764,46.009 -102.764,102.764 z" /></g><g
           transform="translate(372.7764,237)"
           id="g40"><path
             id="path42"
             style="fill:none;stroke:#000000;stroke-width:7;stroke-linecap:round;stroke-linejoin:round;stroke-miterlimit:10;stroke-dasharray:none;stroke-opacity:1"
             d="m 0,0 c 0,-56.755 -46.009,-102.764 -102.764,-102.764 -56.755,0 -102.764,46.009 -102.764,102.764 z" /></g></g></g></g></svg>