<?xml version="1.0" encoding="utf-8"?>
<svg xmlns="http://www.w3.org/2000/svg" xmlns:xlink="http://www.w3.org/1999/xlink" version= "1.1" width="720px" height="1424px" viewBox="0 0 720 1424">
<g id="layer1">
<g style="fill:rgb(0,0,0); fill-opacity:1.0; stroke-linejoin: miter">
<path d="M537.2399,863.95056L629.5839,863.95105L721.928,863.9517Q721.928,980.58795,721.928,1097.2235Q629.5838,1097.2242,537.2399,1097.2244Q537.24,980.5877,537.2399,863.95056 Z"/>
</g>
<g style="fill:rgb(0,0,0); fill-opacity:1.0; stroke-linejoin: miter">
<path d="M200.51237,358.33932L630.93555,358.34024L1061.359,358.34094Q1061.359,638.2343,1061.3593,918.1276Q630.93567,918.12805,200.51202,918.12854Q200.51219,638.2341,200.51237,358.33932 Z"/>
</g>
<g style="fill:rgb(255,255,255); fill-opacity:1.0; stroke-linejoin: miter">
<path d="M222.35698,383.6034L630.93555,383.60443L1039.5144,383.60492Q1039.5145,636.7143,1039.5145,889.8238Q630.93567,889.8242,222.35663,889.8247Q222.35681,636.7143,222.35698,383.6034 Z"/>
</g>
<g style="fill:rgb(0,0,0); fill-opacity:1.0; stroke-linejoin: miter">
<path d="M404.54608,1071.676L629.5838,1071.6766L854.62164,1071.6783Q854.62164,1089.583,854.62164,1107.488Q629.5838,1107.4888,404.54596,1107.4897Q404.54596,1089.5828,404.54608,1071.676 Z"/>
</g>
<g>
<g style="fill:rgb(255,0,44); fill-opacity:1.0; stroke-linejoin: miter">
<path d="M500.49783,470.5786C498.2717,471.14056,495.61346,472.65344,488.11398,477.64587C476.70282,485.2534,467.27982,493.05548,457.38135,503.12653C438.27625,522.55615,423.8609,545.2273,414.2217,570.9671C409.25095,584.2372,405.5337,599.5171,403.8047,613.6513C403.02667,619.8972,402.72406,623.93884,402.4431,630.8763C401.53537,654.0444,405.01498,677.73157,412.5144,699.8193C413.68155,703.2553,415.71307,708.65826,416.49103,710.4735C416.72882,711.01385,417.46368,712.7647,418.15512,714.36395C419.77612,718.1678,422.9531,724.7595,425.20074,728.9089C442.59854,761.0891,468.42508,787.41284,500.2813,805.4587C504.0418,807.59827,504.9279,807.9442,506.981,808.09546C511.21686,808.398,514.9342,805.8475,516.2742,801.69806C516.85767,799.9042,516.6415,797.2461,515.77704,795.3443C514.783,793.2047,513.3998,791.9295,509.79056,789.91943C489.30237,778.4436,471.21307,762.79663,456.71127,744.0806C442.66342,725.9265,432.13828,704.5737,426.2814,682.37805C418.52258,652.94214,418.58746,621.6693,426.4975,592.3851C435.05597,560.65826,452.7348,531.6114,476.94052,509.50226C485.7367,501.4624,494.53278,494.87085,505.1877,488.3224C506.57092,487.47955,508.14853,486.33395,508.68878,485.77194C512.88153,481.51425,511.5848,474.05823,506.1818,471.48648C504.0206,470.44894,502.16196,470.14642,500.49783,470.5786 Z"/>
</g>
<g style="fill:rgb(255,0,44); fill-opacity:1.0; stroke-linejoin: miter">
<path d="M518.50073,504.4018C517.93884,504.55304,516.23145,505.43903,514.7186,506.3684C493.58188,519.2711,475.64374,537.2308,462.8493,558.3242C453.05887,574.48987,446.2295,592.5797,443.03088,610.84186C442.0583,616.28815,441.90704,617.4551,441.38824,622.5126C439.68094,639.17535,440.78317,656.5948,444.52213,672.82544C448.5851,690.33154,455.8469,707.3183,465.76688,722.46875C478.1289,741.37897,494.94315,757.71765,514.1562,769.4959C517.29004,771.41956,521.2234,773.62366,522.28235,774.0346C525.74036,775.4176,529.7602,773.81836,531.44586,770.3819C531.96466,769.3232,532.0511,768.8909,532.0511,767.31323C532.05115,765.88666,531.9431,765.23865,531.57556,764.46045C530.88416,762.9478,529.30646,761.3917,527.426,760.35443C520.89923,756.78827,511.93027,750.7153,506.4408,746.1554C482.6243,726.35864,466.56662,700.9863,459.24,671.55023C457.61905,665.06665,456.64645,659.253,455.7388,650.7595C455.30655,646.5882,455.11203,634.83105,455.41458,630.0334C456.86264,606.8868,463.4544,585.62054,475.2114,566.1047C486.1471,547.9503,501.57837,532.0654,519.3435,520.719C525.0925,517.04486,525.568,516.6989,526.34595,515.6616C527.9669,513.52216,528.2479,510.75555,527.0809,508.24884C526.38916,506.73615,525.9137,506.174,524.4873,505.26636C522.6719,504.12097,520.6187,503.81805,518.50073,504.4018 Z"/>
</g>
<g style="fill:rgb(255,0,44); fill-opacity:1.0; stroke-linejoin: miter">
<path d="M536.67664,537.23114C536.2444,537.3822,534.3209,538.5059,532.3757,539.7378C506.39783,556.22766,487.98416,582.1192,481.02505,611.9655C475.7949,634.4423,477.28613,657.61066,485.3907,679.352C494.42453,703.6225,512.38416,725.1917,534.64465,738.46136C540.0477,741.7034,541.3013,742.1571,543.2247,741.61676C547.09326,740.53625,548.5197,735.9326,545.99097,732.75604C545.6236,732.28046,544.3053,731.32935,542.6196,730.357C531.70544,723.95984,522.56335,716.4602,514.95605,707.664C499.09274,689.3153,490.1021,666.7308,489.17273,642.82764C488.87024,635.1121,489.28088,628.3477,490.44794,621.2156C494.0788,599.3226,504.36624,579.37463,520.1648,563.61914C525.9568,557.8702,531.92175,553.0724,538.53503,548.923C543.2467,545.9841,543.9166,545.1411,543.9166,542.3314C543.9166,540.53766,543.4844,539.4355,542.3822,538.398C540.9774,537.0579,538.53516,536.56085,536.67664,537.23114 Z"/>
</g>
</g>
<g>
<g style="fill:rgb(255,0,44); fill-opacity:1.0; stroke-linejoin: miter">
<path d="M543.7731,569.56604L543.77295,708.9785L617.39514,708.97845L617.39514,689.7895L577.05963,689.7895L577.0597,569.566 Z M626.20654,569.5661L626.20636,708.9785L659.4929,708.97845L659.4931,569.56604 Z M668.5001,569.56604L692.58386,708.97845L739.9683,708.9784L765.2272,569.566L733.31116,569.566L717.2551,683.13214L701.7867,569.56604 Z M773.05927,569.566L773.0591,708.9784L846.6814,708.97833L846.6814,689.78937L806.34576,689.78937L806.3459,642.01337L845.3107,642.01337L845.3107,623.6077L806.34576,623.6077L806.34576,588.5588L846.4857,588.5589L846.4857,569.5659 Z"/>
</g>
</g>
</g>
</svg>