<?xml version="1.0" encoding="utf-8"?>
<!-- Generator: Adobe Illustrator 18.1.1, SVG Export Plug-In . SVG Version: 6.00 Build 0)  -->
<svg version="1.1" id="Layer_1" xmlns="http://www.w3.org/2000/svg" xmlns:xlink="http://www.w3.org/1999/xlink" x="0px" y="0px"
	 viewBox="0 0 3000 3000" enable-background="new 0 0 3000 3000" xml:space="preserve">
<g>
	<defs>
		<rect id="SVGID_1_" width="3000" height="3000"/>
	</defs>
	<clipPath id="SVGID_2_">
		<use xlink:href="#SVGID_1_"  overflow="visible"/>
	</clipPath>
	<rect clip-path="url(#SVGID_2_)" fill="#00AEEF" width="3000" height="3000"/>
	<ellipse clip-path="url(#SVGID_2_)" fill="#0098D1" cx="1500" cy="3000" rx="2078.9" ry="968.9"/>
	
		<radialGradient id="SVGID_3_" cx="1500" cy="2553.4175" r="543.0943" gradientTransform="matrix(1 0 0 0.2041 0 2032.2025)" gradientUnits="userSpaceOnUse">
		<stop  offset="0" style="stop-color:#006E96"/>
		<stop  offset="0.5424" style="stop-color:#0086B8"/>
		<stop  offset="1" style="stop-color:#0098D1"/>
	</radialGradient>
	<ellipse clip-path="url(#SVGID_2_)" fill="url(#SVGID_3_)" cx="1500" cy="2553.4" rx="553.3" ry="119.8"/>
	<g clip-path="url(#SVGID_2_)">
		<polygon fill="#8F1016" points="1842.5,983.4 1157.5,983.4 1252.6,886.1 1747.4,886.1 		"/>
		<path fill="#2E3192" d="M1782.8,780.1c0,245.9-126.6,445.3-282.8,445.3c-98.3,0-184.9-79-235.5-198.8
			c-8.1-19.3-15.4-39.6-21.5-60.8c-16.5-56.5-25.7-119.4-25.7-185.6c0-245.9,126.6-360.6,282.8-360.6
			c123.9,0,229.1,72.1,267.4,224.7c3,11.8,5.5,24.1,7.7,36.9C1780.1,711.3,1782.8,744.3,1782.8,780.1z"/>
		<path fill="#282B80" d="M1782.8,780.1c0,245.9-126.6,445.3-282.8,445.3c-98.3,0-184.9-79-235.5-198.8
			c-8.1-19.3-15.4-39.6-21.5-60.8c205.5-42.5,409.2-211.2,524.4-321.6c3,11.8,5.5,24.1,7.7,36.9
			C1780.1,711.3,1782.8,744.3,1782.8,780.1z"/>
		<path fill="#58595B" d="M1542.6,2580.5h-85.3c-29.8,0-54.3-21.8-55.3-49.3l-47.9-1387h291.6l-47.9,1387
			C1596.9,2558.6,1572.5,2580.5,1542.6,2580.5z"/>
		<path fill="#3E3E40" d="M1645.8,1144.2l-47.9,1387c-0.9,27.5-25.4,49.3-55.3,49.3H1500V1144.2H1645.8z"/>
		<rect x="1157.5" y="983.4" fill="#7A0E13" width="684.9" height="401"/>
		<rect x="1187.5" y="1013.5" fill="#FF1923" width="625.1" height="340.7"/>
		<path fill="#8F1016" d="M1842.5,983.4h-684.9c0,0,61.4-29.4,83.1-28.2c128.3,7.3,393.8,8.2,519.5,0
			C1781.8,953.8,1842.5,983.4,1842.5,983.4z"/>
		<polygon fill="#FF0A14" points="1186.3,1354.2 1811.7,1014.1 1811.7,1354.2 		"/>
		<polygon fill="#D7DF23" points="1302.2,1257.9 1302.2,1092.1 1278.2,1092.1 1278.2,1278 1326.5,1278 1363.5,1257.9 		"/>
		<polygon fill="#D7DF23" points="1432.3,1092.1 1408.3,1092.1 1408.3,1233.5 1432.3,1220.4 		"/>
		<polygon fill="#D7DF23" points="1608,1092.1 1582.3,1092.1 1562.7,1149.6 1593.4,1132.8 		"/>
		<polygon fill="#D7DF23" points="1480.3,1092.1 1454.4,1092.1 1486.6,1190.9 1507.9,1179.4 		"/>
		<polygon fill="#D7DF23" points="1628.1,1092.1 1628.1,1114 1668.3,1092.1 		"/>
		<polygon fill="#CAD121" points="1381.6,1257.9 1363.5,1257.9 1326.5,1278 1381.6,1278 		"/>
		<polygon fill="#CAD121" points="1432.3,1278 1432.3,1220.4 1408.3,1233.5 1408.3,1278 		"/>
		<path fill="#CAD121" d="M1541.5,1278l51.9-145.2l-30.7,16.7l-11.8,34.4c-8.3,24.3-16,47.7-21.2,69.2h-0.6
			c-5-21.8-11.9-44.4-19.9-69.5l-1.4-4.3l-21.3,11.6l28.4,87.1H1541.5z"/>
		<polygon fill="#CAD121" points="1732.6,1278 1732.6,1257.9 1652.1,1257.9 1652.1,1190.9 1724.3,1190.9 1724.3,1171 1652.1,1171 
			1652.1,1112.3 1728.5,1112.3 1728.5,1092.1 1668.3,1092.1 1628.1,1114 1628.1,1278 		"/>
	</g>
	<path clip-path="url(#SVGID_2_)" fill="none" stroke="#D7DF23" stroke-width="25" stroke-miterlimit="10" d="M274.4,444.4"/>
	<g clip-path="url(#SVGID_2_)">
		<path fill="none" stroke="#A3E7FF" stroke-width="30" stroke-linecap="round" stroke-miterlimit="10" d="M362.4,647.3
			c43.2,25.2,72.1,70.5,72.1,122.2c0,51.7-28.8,97-72.1,122.2"/>
		<path fill="none" stroke="#A3E7FF" stroke-width="30" stroke-linecap="round" stroke-miterlimit="10" d="M419.3,559.1
			c74.4,43.4,124.1,121.4,124.1,210.4c0,89-49.6,167-124.1,210.4"/>
		<path fill="none" stroke="#A3E7FF" stroke-width="30" stroke-linecap="round" stroke-miterlimit="10" d="M419.3,559.1"/>
		<path fill="none" stroke="#A3E7FF" stroke-width="30" stroke-linecap="round" stroke-miterlimit="10" d="M475,472.8
			c105,61.2,175,171.2,175,296.8c0,125.6-70,235.6-175,296.8"/>
		<path fill="none" stroke="#A3E7FF" stroke-width="30" stroke-linecap="round" stroke-miterlimit="10" d="M531.8,384.6
			c136.2,79.4,227,222.1,227,385s-90.8,305.6-227,385"/>
	</g>
	<g clip-path="url(#SVGID_2_)">
		<path fill="none" stroke="#A3E7FF" stroke-width="30" stroke-linecap="round" stroke-miterlimit="10" d="M2637.6,647.3
			c-43.2,25.2-72.1,70.5-72.1,122.2c0,51.7,28.8,97,72.1,122.2"/>
		<path fill="none" stroke="#A3E7FF" stroke-width="30" stroke-linecap="round" stroke-miterlimit="10" d="M2580.7,559.1
			c-74.4,43.4-124.1,121.4-124.1,210.4c0,89,49.6,167,124.1,210.4"/>
		<path fill="none" stroke="#A3E7FF" stroke-width="30" stroke-linecap="round" stroke-miterlimit="10" d="M2580.7,559.1"/>
		<path fill="none" stroke="#A3E7FF" stroke-width="30" stroke-linecap="round" stroke-miterlimit="10" d="M2525,472.8
			c-105,61.2-175,171.2-175,296.8c0,125.6,70,235.6,175,296.8"/>
		<path fill="none" stroke="#A3E7FF" stroke-width="30" stroke-linecap="round" stroke-miterlimit="10" d="M2468.2,384.6
			c-136.2,79.4-227,222.1-227,385s90.8,305.6,227,385"/>
	</g>
</g>
</svg>
