<?xml version="1.0" standalone="no"?>
<!DOCTYPE svg PUBLIC "-//W3C//DTD SVG 20010904//EN"
 "http://www.w3.org/TR/2001/REC-SVG-20010904/DTD/svg10.dtd">
<svg version="1.0" xmlns="http://www.w3.org/2000/svg"
 width="1438.000000pt" height="1438.000000pt" viewBox="0 0 1438.000000 1438.000000"
 preserveAspectRatio="xMidYMid meet">

<g transform="translate(0.000000,1438.000000) scale(0.100000,-0.100000)"
fill="#000000" stroke="none">
<path d="M6786 14370 c-1029 -64 -1996 -328 -2881 -784 -1306 -674 -2364
-1718 -3065 -3025 -286 -534 -534 -1206 -665 -1801 -117 -533 -168 -1012 -168
-1565 0 -432 27 -772 93 -1173 223 -1353 822 -2599 1745 -3630 137 -153 438
-453 588 -584 733 -648 1602 -1145 2531 -1447 947 -309 1964 -417 2961 -316
1616 164 3128 875 4289 2015 448 440 803 886 1123 1410 850 1394 1196 3071
972 4705 -183 1332 -740 2592 -1600 3620 -1089 1300 -2570 2165 -4232 2470
-182 33 -469 71 -687 90 -206 19 -802 27 -1004 15z m854 -301 c2708 -164 5088
-1948 6028 -4519 56 -154 162 -488 162 -511 0 -6 -40 -54 -88 -107 -116 -127
-189 -219 -302 -377 -250 -353 -551 -894 -736 -1327 -32 -76 -64 -138 -71
-138 -6 0 -892 315 -1970 699 -1077 384 -2030 719 -2118 744 -272 78 -516 126
-825 164 -209 26 -851 26 -1060 0 -301 -37 -549 -85 -810 -159 -80 -22 -1047
-362 -2148 -755 -1102 -393 -2005 -713 -2006 -711 -1 2 -35 77 -76 167 -259
570 -671 1228 -993 1583 l-106 117 30 108 c407 1454 1284 2740 2487 3647 1332
1003 2919 1477 4602 1375z m6311 -5535 c39 -195 84 -513 106 -744 22 -234 25
-921 5 -1135 -55 -595 -152 -1082 -313 -1582 -196 -605 -472 -1174 -830 -1710
-79 -118 -109 -156 -109 -138 0 3 -34 166 -76 363 -81 380 -106 509 -124 637
-43 308 -59 696 -41 980 23 351 43 479 176 1110 96 454 108 500 160 628 213
530 534 1116 837 1526 75 102 171 220 176 216 1 -1 16 -69 33 -151z m-13397
-83 c343 -440 716 -1099 937 -1654 22 -56 48 -110 56 -119 28 -32 120 -497
163 -828 84 -652 79 -1339 -16 -2000 -28 -193 -111 -621 -123 -633 -8 -8 -207
288 -313 468 -484 815 -796 1732 -907 2665 -40 331 -46 441 -46 840 0 400 7
529 45 848 19 154 75 501 85 531 8 20 24 3 119 -118z m6967 -31 c345 -27 645
-82 989 -182 116 -33 4021 -1425 4031 -1436 3 -4 -18 -119 -47 -257 -202 -946
-232 -1180 -221 -1730 9 -442 38 -651 186 -1345 49 -228 86 -418 82 -421 -6
-7 -3675 -1318 -3891 -1391 -932 -315 -1988 -315 -2920 0 -140 48 -3884 1383
-3889 1388 -1 1 15 85 38 186 74 334 124 658 158 1028 25 276 25 1031 0 1300
-36 377 -77 642 -156 1010 -26 124 -45 228 -42 232 9 11 3914 1403 4031 1436
333 97 646 155 970 181 154 12 526 13 681 1z m-3726 -6385 c935 -334 1759
-627 1830 -651 337 -114 702 -193 1100 -236 161 -17 769 -17 930 0 398 43 763
122 1100 236 72 24 895 317 1830 651 2010 718 1807 647 1803 635 -8 -24 -331
-361 -468 -488 -1021 -952 -2225 -1552 -3574 -1783 -393 -67 -710 -92 -1156
-92 -681 0 -1267 80 -1891 258 -1065 305 -2006 841 -2840 1618 -138 128 -458
463 -467 487 -4 12 -207 83 1803 -635z"/>
<path d="M2264 11359 c-41 -12 -91 -69 -99 -113 -9 -45 8 -96 44 -130 21 -20
307 -133 1162 -457 624 -236 1166 -442 1204 -457 l70 -27 -852 -5 -853 -5 -36
-37 c-32 -31 -38 -44 -41 -90 -5 -60 16 -104 64 -135 25 -17 79 -18 852 -23
l825 -5 -985 -353 c-541 -195 -995 -362 -1009 -371 -69 -48 -79 -156 -19 -217
44 -45 92 -58 150 -41 24 8 661 236 1414 506 1313 472 1372 495 1408 532 33
34 37 43 37 91 0 55 -19 97 -56 122 -26 19 -3182 1214 -3219 1220 -17 3 -44 1
-61 -5z"/>
<path d="M12030 11360 c-80 -25 -3178 -1205 -3194 -1216 -37 -25 -56 -67 -56
-122 0 -48 4 -57 38 -91 35 -37 94 -60 1407 -532 754 -270 1390 -498 1414
-506 58 -17 106 -4 150 41 60 61 50 169 -19 217 -14 9 -468 176 -1009 371
l-985 353 825 5 c773 5 827 6 852 23 48 31 69 75 64 135 -3 46 -9 59 -41 90
l-36 37 -853 5 -852 5 70 27 c39 15 580 221 1204 457 855 324 1141 437 1162
457 36 34 53 85 44 130 -8 46 -58 101 -103 114 -42 11 -47 11 -82 0z"/>
<path d="M6845 6743 c-1172 -45 -2305 -193 -3391 -443 -423 -97 -1013 -260
-1075 -297 -43 -25 -72 -87 -67 -138 7 -59 39 -100 94 -121 45 -17 48 -17 122
6 1318 399 2771 638 4247 700 304 13 962 13 1255 0 1329 -57 2523 -268 3659
-646 240 -80 254 -82 318 -43 40 25 68 93 59 144 -4 19 -21 51 -37 70 -27 31
-56 43 -287 119 -1144 378 -2348 589 -3697 646 -209 9 -1002 11 -1200 3z"/>
<path d="M2382 4930 c-50 -31 -74 -76 -69 -133 5 -57 30 -95 78 -119 32 -17
282 -18 4797 -18 4375 0 4767 1 4798 16 101 48 110 188 15 251 l-34 23 -4776
0 c-4748 0 -4776 0 -4809 -20z"/>
<path d="M2378 3753 c-35 -22 -68 -82 -68 -125 0 -44 30 -99 67 -121 41 -23
276 -94 518 -155 1022 -258 2382 -422 3920 -473 403 -13 1503 -7 1830 10 1441
77 2521 261 3199 545 162 68 191 88 211 140 24 63 14 110 -35 158 -53 53 -103
53 -228 -2 -676 -293 -1694 -470 -3162 -551 -311 -17 -1420 -23 -1805 -10
-1681 57 -3194 257 -4167 551 -176 53 -236 60 -280 33z"/>
</g>
</svg>
