<?xml version="1.0" standalone="no"?>
<!DOCTYPE svg PUBLIC "-//W3C//DTD SVG 20010904//EN"
 "http://www.w3.org/TR/2001/REC-SVG-20010904/DTD/svg10.dtd">
<svg version="1.0" xmlns="http://www.w3.org/2000/svg"
 width="1878.000000pt" height="1461.000000pt" viewBox="0 0 1878.000000 1461.000000"
 preserveAspectRatio="xMidYMid meet">

<g transform="translate(0.000000,1461.000000) scale(0.100000,-0.100000)"
fill="#000000" stroke="none">
<path d="M9070 14603 c-316 -17 -609 -48 -879 -94 -1811 -305 -3449 -1306
-4553 -2783 -569 -760 -966 -1588 -1207 -2515 -22 -84 -42 -155 -43 -157 -2
-1 -40 10 -85 26 -194 69 -462 95 -663 66 -264 -39 -466 -142 -644 -326 -169
-175 -289 -404 -342 -650 -28 -131 -26 -389 4 -540 87 -427 318 -859 737
-1375 144 -177 194 -249 234 -336 48 -103 61 -241 29 -302 -10 -20 -74 -54
-182 -97 -179 -71 -518 -255 -711 -387 -158 -108 -275 -205 -396 -329 -165
-170 -256 -313 -314 -494 -40 -122 -46 -316 -16 -444 22 -92 93 -271 135 -340
l23 -39 -47 -96 c-98 -196 -139 -354 -140 -527 0 -137 23 -235 81 -343 53 -99
151 -237 232 -326 58 -63 70 -85 117 -205 149 -377 356 -699 548 -851 42 -34
87 -66 99 -72 12 -5 26 -19 29 -31 4 -12 28 -72 55 -134 87 -204 211 -392 350
-531 298 -298 618 -390 1267 -362 136 6 308 18 382 27 399 45 747 157 998 320
98 64 242 182 277 229 19 23 37 33 79 42 252 53 471 333 627 803 26 80 51 145
56 145 4 0 64 -39 133 -86 967 -667 2133 -1094 3315 -1214 479 -48 1006 -48
1480 1 1192 123 2374 559 3329 1227 55 38 105 71 111 73 8 3 19 -19 30 -58 9
-35 35 -112 57 -173 146 -400 350 -651 576 -711 60 -16 75 -25 147 -94 179
-170 356 -277 615 -370 262 -94 550 -140 994 -160 575 -26 877 41 1152 255
201 157 386 422 499 713 26 67 34 77 81 107 121 78 279 256 394 445 70 115
168 318 229 473 46 118 56 134 121 204 78 84 204 267 244 353 103 227 80 493
-71 811 l-54 115 50 102 c106 211 145 392 123 565 -38 301 -219 574 -567 852
-213 170 -612 403 -875 510 -207 85 -210 88 -210 203 0 80 17 147 55 222 41
81 73 125 240 335 258 323 390 523 525 797 81 164 156 372 191 529 29 132 37
400 15 525 -60 345 -262 671 -527 846 -183 123 -413 188 -654 188 -155 -1
-398 -44 -502 -90 -59 -26 -60 -26 -68 13 -20 97 -106 399 -166 584 -243 742
-602 1432 -1067 2053 -842 1122 -1966 1962 -3279 2448 -794 294 -1662 446
-2513 440 -129 -1 -260 -3 -290 -5z m975 -317 c874 -90 1671 -319 2423 -695
1097 -549 2023 -1374 2694 -2401 346 -528 594 -1049 793 -1660 59 -182 175
-622 175 -664 0 -13 -16 -44 -37 -68 -136 -162 -253 -422 -317 -708 -39 -175
-55 -297 -66 -505 -18 -323 -29 -446 -54 -565 -85 -406 -259 -803 -546 -1245
-204 -314 -432 -766 -544 -1076 -27 -73 -29 -77 -69 -89 -54 -16 -226 -101
-286 -142 -149 -101 -299 -256 -404 -418 -308 -477 -424 -1206 -316 -1998 12
-84 19 -155 17 -156 -89 -74 -455 -315 -648 -428 -1885 -1101 -4196 -1239
-6205 -371 -195 85 -543 260 -720 364 -156 91 -469 294 -588 383 -67 50 -78
61 -73 81 3 13 16 97 28 187 30 220 33 761 5 958 -66 468 -200 824 -412 1095
-153 196 -334 333 -560 426 l-90 38 -45 118 c-131 340 -337 740 -535 1043
-204 310 -348 604 -453 920 -87 261 -118 444 -132 773 -5 122 -16 275 -25 341
-54 413 -184 759 -367 979 l-40 48 22 97 c386 1714 1432 3231 2905 4213 994
663 2123 1049 3330 1138 196 15 953 6 1140 -13z m-7980 -5496 c129 -25 209
-65 297 -149 232 -218 352 -601 378 -1199 5 -127 17 -280 25 -339 71 -485 276
-987 615 -1508 118 -181 237 -395 340 -610 194 -403 297 -731 345 -1090 l7
-50 -64 61 c-94 90 -182 146 -292 184 l-49 18 -1 193 c-2 229 -13 283 -88 436
-129 267 -394 430 -767 473 -91 11 -107 10 -147 -5 -65 -25 -97 -72 -102 -149
-3 -51 0 -66 20 -96 36 -54 79 -77 155 -85 416 -43 605 -234 590 -595 -4 -125
-21 -169 -92 -248 -142 -157 -426 -272 -857 -347 -255 -44 -622 -75 -898 -75
-140 0 -173 -11 -210 -72 -58 -95 -26 -204 75 -249 47 -22 183 -24 470 -9 576
31 1033 128 1347 285 120 59 174 95 266 173 61 52 65 54 108 47 122 -18 271
-138 334 -269 89 -187 88 -344 -1 -533 -108 -227 -377 -402 -780 -507 -328
-86 -628 -118 -1106 -117 -306 0 -312 0 -344 -22 -19 -12 -44 -38 -56 -56 -47
-70 -20 -187 55 -233 96 -59 806 -40 1237 33 533 90 944 279 1160 534 28 33
55 62 60 64 13 7 98 -100 142 -177 59 -105 83 -197 83 -315 0 -179 -42 -288
-155 -403 -175 -178 -466 -304 -910 -393 -245 -50 -627 -91 -837 -91 -123 0
-189 -53 -195 -158 -8 -118 66 -182 208 -182 204 0 596 40 845 85 479 88 878
256 1103 465 30 27 56 50 58 50 10 0 1 -210 -13 -280 -91 -481 -505 -789
-1194 -890 -324 -47 -864 -53 -1042 -11 -241 56 -413 181 -569 414 -71 106
-123 210 -183 371 -25 65 -53 128 -63 138 -10 11 -46 33 -81 49 -118 53 -273
237 -398 473 -31 59 -54 109 -52 111 2 3 24 15 48 28 80 42 112 145 70 227
-25 50 -47 64 -213 140 -154 71 -191 102 -289 248 -90 133 -103 171 -102 292
0 87 5 120 28 190 30 90 90 217 151 315 33 54 36 65 32 115 -3 43 -13 70 -47
125 -65 104 -118 225 -142 317 -95 379 240 766 1007 1164 88 45 196 97 240
114 198 78 287 146 343 260 61 125 67 301 17 473 -46 161 -104 255 -327 533
-79 99 -172 219 -208 268 -342 475 -512 935 -471 1274 31 251 168 505 345 638
199 150 436 192 741 134z m15100 3 c294 -66 525 -306 617 -643 33 -122 32
-362 -1 -500 -37 -149 -87 -283 -162 -435 -115 -234 -244 -427 -479 -720 -168
-210 -234 -303 -282 -400 -67 -133 -89 -229 -89 -385 0 -161 41 -272 133 -357
60 -55 115 -85 256 -142 119 -48 351 -168 501 -258 227 -138 384 -257 516
-394 103 -107 143 -161 186 -254 102 -216 74 -410 -97 -690 -43 -70 -48 -87
-49 -136 0 -48 6 -64 37 -111 130 -196 203 -431 177 -571 -13 -73 -33 -115
-111 -229 -97 -143 -135 -174 -297 -247 -82 -37 -154 -76 -170 -93 -82 -84
-50 -228 60 -272 l41 -16 -56 -106 c-31 -57 -82 -144 -113 -192 -60 -90 -219
-259 -263 -279 -14 -6 -42 -19 -64 -29 -47 -21 -64 -49 -110 -178 -73 -203
-177 -381 -300 -513 -157 -168 -301 -243 -536 -278 -179 -28 -648 -17 -930 21
-667 89 -1092 381 -1204 826 -27 107 -41 247 -31 307 l7 41 66 -61 c321 -293
926 -479 1732 -530 241 -15 297 -11 344 24 47 36 68 79 68 137 0 51 -18 94
-54 126 -39 36 -64 44 -140 44 -198 0 -594 42 -818 86 -609 120 -974 328
-1061 604 -29 94 -36 247 -15 330 29 112 95 234 183 338 l29 33 53 -63 c259
-307 749 -507 1421 -583 335 -37 864 -42 957 -9 132 47 147 241 23 304 -34 18
-61 19 -341 19 -390 -1 -634 19 -909 72 -408 79 -713 220 -879 406 -132 147
-191 370 -145 547 53 209 196 360 376 398 l57 12 54 -51 c228 -216 681 -370
1287 -438 181 -20 546 -38 679 -33 96 3 112 6 148 30 102 67 99 215 -6 285
-30 21 -46 23 -150 23 -64 0 -199 5 -301 10 -876 49 -1437 245 -1537 535 -19
56 -20 243 -2 323 28 125 129 251 249 312 73 37 214 75 316 85 91 9 140 36
172 95 42 78 14 176 -66 228 -57 37 -291 9 -474 -58 -207 -75 -363 -208 -457
-389 -62 -120 -81 -197 -91 -361 -8 -132 -8 -170 5 -251 4 -25 -1 -28 -71 -54
-93 -34 -204 -105 -278 -179 l-56 -56 0 34 c0 55 38 262 70 382 108 406 344
915 620 1339 168 258 269 446 379 702 161 378 234 689 251 1073 13 286 26 407
60 580 77 387 239 670 442 773 153 77 429 104 623 60z m-12688 -4625 c324
-256 515 -731 554 -1379 27 -446 -47 -970 -191 -1355 -66 -176 -65 -177 -65
24 -1 138 -5 191 -19 242 -21 75 -68 169 -101 200 -21 19 -22 25 -12 58 7 21
12 113 12 217 0 214 -10 264 -90 430 -62 131 -125 221 -229 332 -46 48 -76 89
-76 102 0 12 17 56 39 99 122 244 152 582 86 954 -8 46 -18 101 -22 123 l-6
39 29 -18 c16 -11 57 -41 91 -68z m9949 65 c-16 -51 -48 -275 -56 -392 -18
-283 30 -564 124 -726 44 -74 40 -91 -44 -178 -142 -147 -241 -312 -296 -492
-26 -83 -28 -103 -28 -260 0 -93 6 -190 12 -214 10 -41 9 -47 -14 -74 -38 -45
-82 -139 -101 -214 -12 -49 -17 -115 -17 -231 l-1 -164 -23 49 c-35 76 -117
337 -146 465 -111 493 -115 1075 -11 1513 94 398 273 701 523 885 73 54 86 60
78 33z"/>
<path d="M7215 11569 c-215 -17 -451 -104 -619 -228 -136 -101 -281 -260 -372
-409 -26 -42 -49 -79 -50 -81 -2 -2 -33 22 -69 53 -196 166 -434 281 -665 322
-137 23 -359 15 -495 -20 -282 -71 -522 -212 -736 -433 -162 -168 -270 -345
-343 -563 -54 -160 -70 -269 -70 -460 1 -191 19 -327 69 -500 84 -293 222
-524 453 -762 190 -195 370 -328 849 -626 294 -184 394 -241 723 -411 385
-200 547 -302 708 -445 89 -80 132 -96 194 -73 37 14 90 69 344 354 166 186
434 491 595 678 637 739 825 985 955 1244 198 395 232 855 98 1299 -149 492
-525 861 -1025 1006 -161 46 -380 69 -544 55z"/>
<path d="M11380 11573 c-299 -17 -597 -122 -834 -291 -107 -77 -257 -228 -334
-337 -176 -248 -277 -565 -289 -905 -9 -268 27 -479 121 -712 119 -292 301
-540 969 -1316 327 -380 765 -876 895 -1014 100 -105 150 -103 283 12 172 150
336 251 755 468 149 77 311 164 360 193 135 79 525 323 644 402 545 363 825
699 964 1161 56 186 70 286 71 511 0 281 -29 411 -144 650 -76 156 -161 276
-291 405 -283 282 -644 440 -1006 440 -320 0 -594 -110 -895 -359 l-35 -30
-71 107 c-198 300 -458 496 -767 576 -112 29 -281 46 -396 39z"/>
<path d="M5067 6225 c-53 -18 -85 -51 -98 -99 -14 -53 3 -381 31 -602 162
-1270 866 -2405 1935 -3119 600 -401 1233 -631 1985 -722 205 -25 733 -25 945
1 361 42 657 108 973 218 1728 597 2919 2205 2979 4023 7 218 0 246 -66 287
l-36 23 -4305 2 c-3629 2 -4311 0 -4343 -12z"/>
</g>
</svg>
