<?xml version="1.0" standalone="no"?>
<!DOCTYPE svg PUBLIC "-//W3C//DTD SVG 20010904//EN"
 "http://www.w3.org/TR/2001/REC-SVG-20010904/DTD/svg10.dtd">
<svg version="1.0" xmlns="http://www.w3.org/2000/svg"
 width="1680.000000pt" height="1438.000000pt" viewBox="0 0 1680.000000 1438.000000"
 preserveAspectRatio="xMidYMid meet">

<g transform="translate(0.000000,1438.000000) scale(0.100000,-0.100000)"
fill="#000000" stroke="none">
<path d="M6910 14373 c-900 -39 -1743 -229 -2558 -577 -1084 -463 -2061 -1212
-2804 -2151 -1305 -1649 -1818 -3785 -1407 -5860 370 -1872 1485 -3528 3089
-4590 254 -168 443 -278 725 -420 873 -440 1787 -689 2773 -755 196 -13 733
-13 922 0 1413 98 2736 586 3844 1419 82 62 149 111 151 109 1 -2 16 -46 34
-98 40 -119 134 -316 197 -412 55 -86 178 -216 244 -258 49 -32 150 -70 183
-70 11 0 61 -40 117 -93 301 -289 718 -449 1320 -507 183 -18 614 -24 745 -11
322 32 523 112 735 294 178 153 354 416 451 676 21 56 31 68 84 104 226 155
448 484 620 922 42 108 54 126 116 194 74 79 191 246 240 342 99 197 90 465
-27 747 -20 48 -49 110 -64 137 l-29 50 54 110 c98 202 132 343 122 518 -23
418 -357 814 -997 1182 -170 98 -336 181 -478 239 -62 25 -123 53 -137 62 -52
34 -58 180 -11 296 38 94 82 158 244 362 184 230 301 392 404 562 440 728 481
1336 125 1857 -177 259 -445 430 -747 477 -97 14 -303 15 -409 0 -252 -34
-421 -108 -578 -253 l-42 -38 -11 43 c-257 986 -717 1907 -1344 2689 -1001
1249 -2359 2119 -3901 2499 -647 159 -1355 231 -1995 203z m716 -304 c939 -62
1816 -298 2644 -713 1804 -904 3119 -2544 3605 -4496 67 -270 66 -254 33 -334
-111 -271 -159 -532 -183 -981 -8 -148 -22 -310 -30 -360 -75 -423 -263 -870
-550 -1305 -194 -296 -382 -659 -526 -1020 l-57 -145 -76 -31 c-393 -164 -655
-447 -832 -899 -186 -477 -231 -1196 -113 -1810 10 -55 19 -103 19 -106 0 -3
-57 -51 -127 -106 -1490 -1166 -3364 -1661 -5260 -1388 -677 98 -1362 309
-1993 616 -2073 1008 -3508 2984 -3819 5259 -48 347 -55 476 -56 930 0 454 5
547 50 905 154 1218 638 2370 1415 3365 740 948 1748 1700 2884 2152 646 257
1372 420 2076 467 186 12 714 13 896 0z m7584 -5194 c230 -62 401 -207 520
-445 73 -145 100 -263 100 -437 0 -413 -228 -885 -714 -1473 -166 -201 -262
-362 -301 -505 -8 -33 -18 -112 -21 -175 -15 -289 89 -432 396 -547 92 -34
343 -166 511 -267 212 -129 340 -226 475 -360 136 -136 197 -227 240 -351 62
-181 23 -368 -126 -610 -34 -55 -44 -82 -48 -127 -4 -55 -2 -61 56 -160 111
-190 157 -327 157 -468 0 -112 -17 -156 -114 -297 -92 -135 -136 -172 -281
-238 -162 -74 -187 -89 -210 -136 -24 -45 -26 -118 -5 -158 18 -35 69 -79 101
-87 13 -3 24 -9 24 -12 0 -3 -25 -53 -56 -110 -125 -238 -281 -422 -406 -480
-37 -18 -75 -43 -84 -57 -9 -14 -34 -73 -55 -131 -83 -230 -191 -409 -328
-544 -142 -141 -246 -197 -451 -241 -95 -21 -131 -23 -375 -23 -369 1 -621 25
-860 81 -632 148 -985 514 -985 1019 0 57 3 104 6 104 4 0 34 -26 68 -57 175
-162 471 -304 821 -393 310 -79 666 -128 1000 -136 200 -5 212 -5 243 15 87
56 107 180 41 256 -46 52 -91 63 -284 69 -289 8 -616 53 -885 121 -519 130
-817 334 -879 600 -7 28 -12 100 -13 160 -1 121 15 186 73 296 32 60 128 190
145 196 6 2 34 -26 63 -62 206 -254 632 -450 1171 -539 298 -49 438 -60 820
-60 l355 -1 45 25 c51 29 90 92 90 149 0 51 -36 117 -77 142 -34 21 -44 22
-391 24 -371 2 -522 13 -780 56 -556 92 -928 289 -1060 560 -77 158 -90 307
-38 458 64 184 172 294 339 342 l77 23 53 -51 c190 -185 558 -330 1038 -408
247 -40 435 -56 740 -62 282 -6 287 -6 325 16 47 26 80 72 89 124 15 78 -53
180 -127 191 -18 3 -141 7 -273 10 -445 9 -864 70 -1170 171 -114 38 -290 126
-358 180 -120 96 -157 176 -157 345 0 179 41 289 144 389 99 94 213 141 411
167 124 16 160 35 196 97 17 31 20 50 17 93 -5 61 -26 96 -79 133 -32 22 -40
23 -139 18 -317 -18 -602 -163 -749 -383 -109 -162 -145 -309 -139 -561 l4
-161 -41 -12 c-105 -32 -261 -132 -330 -213 -42 -49 -42 -47 -19 110 66 450
329 1076 674 1608 269 414 445 795 545 1180 64 246 81 366 95 688 14 320 46
526 117 736 86 260 225 451 385 532 52 26 160 56 263 72 66 11 311 -1 375 -18z
m-2774 -4622 c-60 -294 -60 -622 0 -848 9 -33 38 -107 65 -164 27 -57 49 -110
49 -118 0 -8 -30 -47 -67 -87 -105 -113 -182 -222 -239 -341 -75 -155 -98
-255 -96 -427 0 -75 6 -163 12 -197 11 -60 11 -60 -23 -104 -81 -107 -110
-228 -105 -451 l3 -158 -28 61 c-78 175 -159 477 -196 736 -109 759 14 1484
323 1892 41 54 94 117 118 140 50 48 190 154 196 149 2 -3 -4 -40 -12 -83z"/>
<path d="M4060 11434 c-292 -34 -537 -106 -782 -230 -843 -428 -1319 -1344
-1183 -2280 89 -614 444 -1172 964 -1517 269 -178 609 -304 941 -348 140 -19
441 -16 580 5 556 85 1027 350 1388 781 367 438 553 1053 491 1623 -61 568
-339 1094 -769 1454 -305 256 -672 426 -1070 494 -91 15 -476 28 -560 18z
m408 -295 c604 -65 1137 -411 1453 -941 103 -174 191 -415 231 -638 28 -153
30 -456 5 -605 -63 -364 -203 -670 -430 -942 -306 -364 -759 -609 -1228 -663
-166 -20 -454 -8 -604 24 -340 72 -617 209 -878 436 -447 387 -691 979 -646
1570 47 626 396 1188 939 1508 341 202 767 294 1158 251z"/>
<path d="M9890 11433 c-767 -82 -1423 -539 -1760 -1225 -235 -478 -287 -1016
-149 -1538 202 -764 827 -1375 1600 -1564 340 -83 708 -82 1049 1 877 213
1537 953 1656 1854 20 157 15 507 -11 644 -43 234 -96 397 -195 600 -326 671
-956 1122 -1703 1220 -107 14 -389 19 -487 8z m408 -294 c567 -62 1075 -367
1387 -834 216 -323 325 -684 325 -1068 -1 -821 -532 -1549 -1316 -1806 -219
-72 -315 -86 -589 -86 -209 0 -254 3 -351 22 -377 77 -700 245 -968 503 -480
463 -681 1116 -546 1769 80 384 298 759 595 1023 399 356 944 534 1463 477z"/>
<path d="M2844 5990 c-28 -11 -72 -65 -81 -97 -18 -72 16 -521 58 -773 216
-1294 1014 -2442 2154 -3100 578 -334 1216 -529 1895 -581 195 -15 637 -6 815
15 894 110 1675 446 2360 1017 129 108 396 374 512 510 559 657 909 1443 1022
2295 24 179 46 519 37 588 -6 58 -26 90 -69 116 -32 20 -87 20 -4357 19 -2379
0 -4334 -4 -4346 -9z"/>
</g>
</svg>
