<?xml version="1.0" standalone="no"?>
<!DOCTYPE svg PUBLIC "-//W3C//DTD SVG 20010904//EN"
 "http://www.w3.org/TR/2001/REC-SVG-20010904/DTD/svg10.dtd">
<svg version="1.0" xmlns="http://www.w3.org/2000/svg"
 width="1438.000000pt" height="1438.000000pt" viewBox="0 0 1438.000000 1438.000000"
 preserveAspectRatio="xMidYMid meet">

<g transform="translate(0.000000,1438.000000) scale(0.100000,-0.100000)"
fill="#000000" stroke="none">
<path d="M6870 14369 c-1790 -78 -3489 -827 -4760 -2099 -1060 -1059 -1754
-2402 -2005 -3875 -71 -417 -98 -753 -98 -1205 0 -453 27 -787 99 -1210 308
-1816 1310 -3449 2794 -4555 1028 -766 2225 -1236 3510 -1379 364 -41 926 -53
1265 -27 1261 95 2423 484 3445 1155 2434 1598 3660 4467 3135 7333 -123 668
-356 1350 -674 1968 -849 1650 -2313 2916 -4066 3515 -668 228 -1320 348
-2050 380 -255 11 -326 11 -595 -1z m720 -299 c977 -59 1890 -309 2755 -754
1802 -926 3120 -2625 3564 -4592 121 -537 166 -951 166 -1534 0 -391 -7 -521
-46 -840 -129 -1070 -510 -2095 -1114 -2996 -1142 -1702 -2977 -2808 -5010
-3019 -392 -40 -948 -45 -1325 -10 -1186 108 -2293 505 -3275 1173 -718 489
-1332 1107 -1828 1838 -1024 1510 -1402 3373 -1051 5179 406 2091 1773 3885
3689 4843 826 412 1724 653 2650 711 191 12 636 12 825 1z"/>
<path d="M3875 10223 c-362 -45 -723 -241 -956 -517 -226 -270 -343 -572 -356
-921 -9 -264 34 -476 142 -702 78 -164 161 -280 300 -419 223 -223 468 -354
780 -416 144 -29 404 -31 540 -4 338 66 610 214 839 458 191 202 315 443 378
732 32 146 32 445 0 593 -136 629 -639 1103 -1267 1193 -66 9 -335 11 -400 3z
m381 -298 c505 -87 888 -454 997 -955 27 -124 29 -358 3 -473 -68 -310 -229
-563 -473 -744 -142 -105 -309 -178 -498 -218 -108 -23 -321 -24 -438 -1 -483
93 -858 457 -969 939 -29 124 -31 363 -5 485 80 373 308 676 635 845 231 120
503 164 748 122z"/>
<path d="M10125 10223 c-362 -45 -723 -241 -956 -517 -226 -270 -343 -572
-356 -921 -9 -264 34 -476 142 -702 78 -164 161 -280 300 -419 223 -223 468
-354 780 -416 144 -29 404 -31 540 -4 338 66 610 214 839 458 191 202 315 443
378 732 32 146 32 445 0 593 -136 629 -639 1103 -1267 1193 -66 9 -335 11
-400 3z m381 -298 c505 -87 888 -454 997 -955 27 -124 29 -358 3 -473 -68
-310 -229 -563 -473 -744 -142 -105 -309 -178 -498 -218 -108 -23 -321 -24
-438 -1 -483 93 -858 457 -969 939 -29 124 -31 363 -5 485 80 373 308 676 635
845 231 120 503 164 748 122z"/>
<path d="M4213 4399 c-65 -19 -110 -106 -91 -176 21 -79 44 -91 378 -204 644
-219 1311 -356 2045 -419 203 -18 884 -24 1112 -11 722 44 1391 166 2059 376
239 76 474 162 497 183 50 45 62 132 27 190 -20 32 -86 71 -122 72 -9 0 -97
-29 -196 -65 -687 -246 -1406 -396 -2192 -457 -210 -16 -886 -16 -1085 0 -809
66 -1494 209 -2189 457 -188 68 -192 69 -243 54z"/>
</g>
</svg>
