<?xml version="1.0" standalone="no"?>
<!DOCTYPE svg PUBLIC "-//W3C//DTD SVG 20010904//EN"
 "http://www.w3.org/TR/2001/REC-SVG-20010904/DTD/svg10.dtd">
<svg version="1.0" xmlns="http://www.w3.org/2000/svg"
 width="1438.000000pt" height="1438.000000pt" viewBox="0 0 1438.000000 1438.000000"
 preserveAspectRatio="xMidYMid meet">

<g transform="translate(0.000000,1438.000000) scale(0.100000,-0.100000)"
fill="#000000" stroke="none">
<path d="M6960 14374 c-752 -30 -1402 -150 -2093 -384 -339 -114 -614 -231
-952 -404 -1173 -599 -2173 -1527 -2863 -2658 -287 -470 -504 -941 -683 -1478
-486 -1463 -486 -3057 0 -4520 85 -256 154 -435 254 -660 494 -1113 1277
-2093 2262 -2833 1893 -1421 4372 -1813 6625 -1048 1882 638 3439 2061 4247
3881 600 1351 769 2866 482 4315 -278 1403 -956 2672 -1969 3685 -1232 1232
-2848 1969 -4585 2090 -157 10 -595 19 -725 14z m840 -318 c1120 -105 2159
-459 3098 -1056 683 -435 1310 -1017 1801 -1670 903 -1204 1381 -2636 1381
-4140 0 -1506 -480 -2943 -1386 -4145 -474 -630 -1044 -1166 -1701 -1602
-1343 -890 -2941 -1276 -4558 -1102 -1880 202 -3605 1184 -4749 2704 -623 827
-1049 1773 -1251 2776 -219 1092 -173 2222 135 3289 228 790 608 1549 1111
2220 216 288 430 531 696 790 958 937 2159 1570 3468 1829 311 62 600 98 985
125 140 9 805 -3 970 -18z"/>
<path d="M3890 11074 c-436 -54 -812 -292 -1107 -702 -137 -189 -288 -541
-343 -797 -41 -195 -71 -491 -56 -569 22 -114 171 -161 248 -79 36 40 48 84
48 184 0 123 26 312 65 465 157 625 585 1094 1085 1188 113 22 495 22 607 1
570 -108 1033 -684 1137 -1415 8 -58 18 -164 22 -237 8 -156 20 -183 90 -215
75 -33 155 -4 189 68 16 34 17 56 12 189 -15 338 -91 642 -237 940 -219 449
-556 766 -967 909 -171 59 -239 68 -513 71 -135 2 -261 1 -280 -1z"/>
<path d="M9971 11070 c-774 -108 -1377 -843 -1470 -1794 -24 -243 -12 -325 54
-366 51 -32 87 -35 139 -12 69 31 82 60 90 205 19 354 97 654 238 917 215 403
550 675 921 745 112 21 494 21 607 -1 343 -65 664 -311 877 -671 166 -283 253
-587 272 -950 10 -178 20 -205 93 -241 55 -28 104 -23 149 15 57 48 63 72 56
225 -36 787 -424 1471 -1007 1777 -102 53 -257 109 -380 136 -87 20 -532 30
-639 15z"/>
<path d="M2829 5977 c-72 -47 -79 -98 -59 -402 57 -850 342 -1641 839 -2325
272 -375 672 -766 1061 -1037 495 -346 1104 -600 1705 -712 301 -56 417 -66
815 -66 412 0 537 11 865 76 753 148 1471 501 2045 1006 896 788 1427 1858
1510 3043 21 308 13 369 -59 417 l-34 23 -4327 0 -4327 0 -34 -23z"/>
</g>
</svg>
