<?xml version="1.0" standalone="no"?>
<!DOCTYPE svg PUBLIC "-//W3C//DTD SVG 20010904//EN"
 "http://www.w3.org/TR/2001/REC-SVG-20010904/DTD/svg10.dtd">
<svg version="1.0" xmlns="http://www.w3.org/2000/svg"
 width="1438.000000pt" height="1438.000000pt" viewBox="0 0 1438.000000 1438.000000"
 preserveAspectRatio="xMidYMid meet">

<g transform="translate(0.000000,1438.000000) scale(0.100000,-0.100000)"
fill="#000000" stroke="none">
<path d="M6825 14364 c-838 -52 -1573 -214 -2300 -504 -1231 -492 -2302 -1316
-3101 -2385 -369 -495 -683 -1054 -908 -1623 -115 -289 -170 -457 -296 -902
-76 -268 -161 -792 -196 -1210 -23 -268 -23 -842 0 -1110 107 -1259 488 -2369
1163 -3395 1191 -1807 3130 -2983 5278 -3199 406 -41 954 -46 1335 -11 1451
131 2766 657 3885 1556 1221 980 2091 2332 2470 3839 228 903 279 1848 149
2774 -327 2334 -1797 4371 -3914 5425 -811 403 -1652 640 -2580 726 -165 16
-833 28 -985 19z m650 -294 c1199 -55 2307 -392 3319 -1012 689 -422 1345
-1011 1842 -1653 423 -547 761 -1151 1002 -1790 59 -156 142 -408 177 -533
l18 -62 -80 -83 c-199 -208 -427 -531 -663 -943 -110 -191 -315 -600 -390
-777 -30 -71 -57 -130 -61 -133 -4 -2 -896 312 -1981 699 -1085 387 -2038 723
-2118 745 -887 251 -1832 250 -2713 -3 -119 -34 -4089 -1443 -4119 -1461 -5
-3 -27 37 -50 88 -303 667 -742 1365 -1075 1708 l-63 66 40 144 c521 1847
1822 3416 3548 4279 1044 522 2217 773 3367 721z m6474 -5546 c352 -1774 -10
-3617 -1006 -5128 -68 -103 -126 -187 -128 -184 -7 7 -174 813 -194 938 -44
277 -55 422 -55 765 0 489 17 626 179 1390 97 456 108 500 160 630 200 496
495 1045 768 1428 88 125 239 318 244 314 1 -2 16 -70 32 -153z m-13339 -159
c305 -408 629 -979 834 -1470 36 -88 79 -185 95 -215 22 -41 41 -113 75 -280
99 -493 141 -863 152 -1355 13 -527 -35 -1058 -142 -1594 -24 -123 -48 -230
-52 -237 -14 -24 -267 369 -432 671 -739 1346 -1002 2920 -744 4455 19 113 37
212 40 220 7 19 43 -21 174 -195z m7090 31 c289 -36 572 -94 825 -171 86 -26
4011 -1421 4021 -1429 1 -1 -40 -199 -92 -441 -147 -695 -173 -881 -181 -1330
-10 -535 17 -773 177 -1525 48 -228 90 -425 92 -438 3 -22 -75 -51 -1872 -693
-1031 -368 -1940 -692 -2020 -718 -883 -297 -1842 -317 -2744 -56 -81 23
-1030 357 -2108 741 -1937 691 -1959 699 -1955 724 2 14 20 99 40 190 70 322
121 655 154 1010 22 245 25 992 5 1220 -36 398 -87 742 -166 1110 -25 112 -44
205 -43 206 7 6 3897 1390 3987 1419 297 95 664 165 1050 199 118 10 701 -3
830 -18z m-3920 -6366 c927 -331 1750 -624 1830 -651 964 -330 2056 -345 3030
-43 63 20 871 306 1795 636 924 330 1742 622 1818 649 l138 48 -43 -51 c-67
-81 -360 -379 -494 -502 -829 -766 -1846 -1320 -2939 -1601 -1162 -300 -2357
-294 -3520 16 -184 49 -576 179 -747 248 -833 333 -1575 810 -2218 1425 -119
114 -391 397 -421 438 l-20 27 53 -18 c29 -10 811 -290 1738 -621z"/>
<path d="M3790 12534 c-222 -35 -432 -104 -652 -215 -210 -107 -507 -312 -554
-384 -60 -92 14 -225 126 -225 41 0 56 8 185 106 658 496 1341 577 1957 232
242 -135 485 -371 639 -618 102 -165 186 -372 226 -560 28 -131 25 -448 -5
-589 -162 -746 -781 -1389 -1482 -1538 -65 -14 -129 -18 -270 -18 -171 0 -193
2 -294 28 -276 72 -484 194 -696 407 -131 131 -221 257 -305 425 -121 243
-168 431 -169 680 -1 178 11 260 56 405 137 434 485 747 964 867 97 24 127 27
274 27 145 0 177 -4 260 -26 271 -73 467 -228 595 -471 234 -444 89 -956 -328
-1156 -269 -130 -534 -95 -722 94 -192 191 -231 482 -91 672 98 134 262 193
435 158 105 -22 132 -16 183 34 34 35 38 44 38 90 0 61 -18 101 -59 130 -72
51 -293 67 -433 32 -146 -38 -296 -131 -383 -239 -56 -70 -119 -195 -142 -282
-25 -95 -22 -289 6 -395 83 -312 313 -549 618 -637 68 -20 100 -23 243 -22
180 0 257 15 383 71 319 141 538 394 624 721 34 129 43 353 19 489 -77 444
-371 804 -783 959 -335 126 -772 97 -1138 -75 -198 -94 -342 -198 -496 -359
-194 -202 -317 -432 -386 -722 -21 -87 -26 -139 -30 -305 -5 -175 -2 -216 17
-329 133 -783 733 -1415 1475 -1553 127 -24 415 -23 550 1 545 98 1074 464
1416 980 328 494 447 1035 338 1541 -61 283 -221 608 -417 848 -84 101 -271
281 -372 356 -229 170 -491 289 -764 347 -104 22 -151 27 -341 30 -162 2 -245
-1 -315 -12z"/>
<path d="M9855 12535 c-486 -76 -915 -379 -1209 -854 -228 -369 -348 -802
-348 -1256 0 -342 57 -612 187 -883 335 -697 1155 -1156 1953 -1092 713 57
1290 473 1668 1204 63 121 74 151 74 192 0 86 -58 144 -144 144 -78 0 -105
-24 -164 -142 -346 -698 -868 -1080 -1513 -1105 -286 -12 -558 48 -834 182
-462 224 -764 582 -878 1040 -43 171 -52 249 -51 465 0 227 18 364 75 568 116
410 353 776 648 997 151 114 354 203 549 242 120 24 373 23 502 -1 650 -124
1172 -616 1286 -1213 22 -116 22 -320 0 -435 -88 -463 -434 -867 -864 -1007
-340 -111 -698 -25 -952 229 -273 272 -344 655 -179 970 90 173 229 296 404
356 183 63 397 22 548 -104 128 -108 200 -244 201 -382 3 -209 -153 -389 -367
-425 -49 -8 -104 -57 -118 -106 -23 -76 23 -157 103 -181 31 -9 53 -8 116 5
244 53 450 242 532 487 34 101 39 271 11 380 -125 495 -664 775 -1152 597
-353 -128 -621 -486 -658 -880 -53 -557 342 -1100 910 -1252 118 -31 270 -44
409 -34 618 45 1207 598 1341 1259 26 127 35 359 19 486 -89 715 -667 1330
-1425 1518 -181 45 -500 60 -680 31z"/>
<path d="M6685 6730 c-1385 -66 -2817 -294 -3990 -634 -325 -94 -341 -101
-369 -159 -47 -100 16 -207 123 -207 25 0 94 16 155 35 924 287 2256 534 3406
630 602 50 1488 70 2035 46 1329 -59 2533 -273 3660 -651 214 -72 256 -76 310
-29 45 40 62 95 46 148 -20 70 -57 91 -293 169 -1058 350 -2142 554 -3393 638
-278 18 -1396 28 -1690 14z"/>
<path d="M2378 4923 c-34 -21 -68 -82 -68 -122 0 -48 24 -95 61 -122 l34 -24
4769 -3 4770 -2 42 21 c32 15 48 32 65 65 34 72 14 143 -54 184 -32 20 -91 20
-4812 20 -4431 -1 -4782 -2 -4807 -17z"/>
<path d="M2407 3756 c-48 -18 -62 -29 -81 -70 -31 -66 -10 -152 46 -186 16
-10 97 -38 181 -63 848 -257 2107 -448 3502 -532 896 -54 1943 -59 2755 -14
1332 73 2400 265 3068 550 126 54 165 83 183 136 34 103 -72 215 -174 184 -17
-5 -72 -27 -122 -49 -576 -253 -1560 -438 -2740 -517 -839 -56 -1878 -59
-2785 -10 -1436 79 -2768 275 -3595 530 -178 55 -192 57 -238 41z"/>
</g>
</svg>
