<?xml version="1.0" standalone="no"?>
<!DOCTYPE svg PUBLIC "-//W3C//DTD SVG 20010904//EN"
 "http://www.w3.org/TR/2001/REC-SVG-20010904/DTD/svg10.dtd">
<svg version="1.0" xmlns="http://www.w3.org/2000/svg"
 width="1807.000000pt" height="1453.000000pt" viewBox="0 0 1807.000000 1453.000000"
 preserveAspectRatio="xMidYMid meet">

<g transform="translate(0.000000,1453.000000) scale(0.100000,-0.100000)"
fill="#000000" stroke="none">
<path d="M8650 14519 c-1797 -42 -3581 -413 -5261 -1094 -669 -271 -1406 -638
-2034 -1013 -519 -310 -1095 -699 -1193 -807 -59 -64 -115 -171 -138 -265 -22
-88 -15 -241 16 -329 31 -87 110 -202 178 -258 102 -82 260 -142 380 -143 62
0 185 27 249 55 29 13 127 76 216 138 2183 1539 4689 2396 7362 2518 285 13
1226 6 1455 -10 896 -65 1546 -160 2310 -337 1676 -388 3314 -1118 4732 -2107
258 -180 291 -200 383 -229 97 -31 242 -31 340 0 207 64 366 240 411 452 32
152 -5 328 -95 457 -58 82 -95 114 -296 255 -1393 975 -2915 1699 -4530 2156
-1454 412 -2938 598 -4485 561z"/>
<path d="M8630 10920 c-1965 -77 -3820 -627 -5475 -1623 -311 -187 -708 -451
-828 -550 -154 -127 -235 -367 -193 -567 37 -176 162 -339 316 -413 175 -84
367 -84 530 -2 25 13 124 78 220 145 2072 1442 4601 2061 7135 1744 1543 -192
3036 -746 4340 -1610 110 -72 249 -166 309 -207 147 -101 230 -130 376 -130
88 0 118 4 185 27 310 105 479 433 381 742 -48 149 -118 234 -300 363 -1624
1150 -3558 1861 -5551 2040 -448 41 -1036 57 -1445 41z"/>
<path d="M8655 7319 c-939 -48 -1828 -252 -2690 -616 -227 -96 -660 -313 -875
-439 -217 -126 -615 -391 -673 -448 -236 -229 -239 -614 -7 -846 115 -115 257
-173 420 -173 164 0 216 21 490 205 373 249 743 450 1138 617 1194 505 2544
646 3837 400 894 -170 1704 -508 2499 -1042 201 -135 271 -167 401 -182 160
-18 348 52 471 175 109 108 163 232 172 390 5 113 -11 190 -64 298 -51 104
-121 174 -296 294 -1414 970 -3122 1454 -4823 1367z"/>
<path d="M8910 3570 c-654 -41 -1247 -461 -1511 -1070 -169 -390 -190 -849
-57 -1265 41 -130 160 -365 245 -485 87 -122 291 -326 413 -413 109 -77 334
-192 464 -237 49 -17 146 -43 215 -57 115 -25 145 -27 356 -28 202 0 244 3
344 23 683 138 1215 641 1386 1307 46 179 59 309 52 512 -8 270 -61 482 -176
718 -246 500 -703 854 -1246 964 -89 18 -138 23 -320 35 -27 1 -102 0 -165 -4z"/>
</g>
</svg>
