<?xml version="1.0" standalone="no"?>
<!DOCTYPE svg PUBLIC "-//W3C//DTD SVG 20010904//EN"
 "http://www.w3.org/TR/2001/REC-SVG-20010904/DTD/svg10.dtd">
<svg version="1.0" xmlns="http://www.w3.org/2000/svg"
 width="1468.000000pt" height="1438.000000pt" viewBox="0 0 1468.000000 1438.000000"
 preserveAspectRatio="xMidYMid meet">

<g transform="translate(0.000000,1438.000000) scale(0.100000,-0.100000)"
fill="#000000" stroke="none">
<path d="M6740 14359 c-2233 -146 -4243 -1296 -5502 -3149 -442 -650 -775
-1379 -989 -2160 -93 -342 -178 -822 -214 -1205 -45 -482 -33 -1102 30 -1590
168 -1294 699 -2542 1509 -3550 1096 -1366 2618 -2275 4329 -2590 631 -116
1367 -145 2007 -79 2151 220 4063 1372 5267 3174 1011 1514 1406 3378 1098
5185 -136 801 -411 1582 -803 2285 -77 139 -224 380 -294 483 l-40 58 70 67
c126 122 299 207 512 253 88 19 135 23 295 23 203 0 277 -11 373 -56 133 -63
268 8 280 146 8 94 -46 165 -155 206 -150 56 -295 80 -491 80 -418 0 -800
-130 -1039 -354 -35 -32 -65 -57 -67 -55 -2 2 -57 72 -123 154 -172 215 -341
401 -571 628 l-200 197 29 69 c92 220 117 549 64 840 -36 195 -117 467 -156
523 -11 14 -39 36 -62 47 -119 57 -254 -16 -265 -144 -3 -42 3 -75 32 -162 82
-247 111 -430 104 -641 -5 -126 -30 -272 -47 -272 -3 0 -46 32 -96 71 -1144
901 -2534 1427 -4010 1519 -185 11 -692 11 -875 -1z m815 -5949 c297 -25 593
-78 875 -157 95 -26 1001 -344 2140 -750 1086 -388 1976 -706 1977 -707 1 -1
-40 -204 -93 -452 -156 -734 -178 -914 -178 -1424 -1 -516 21 -689 183 -1450
49 -233 88 -426 86 -429 -6 -5 -3716 -1330 -3895 -1390 -481 -162 -943 -235
-1470 -235 -522 1 -985 77 -1470 242 -243 83 -3855 1374 -3863 1381 -4 4 6 66
22 137 91 394 153 819 181 1242 13 199 13 767 0 964 -27 389 -67 688 -147
1078 -74 361 -71 334 -36 348 80 32 3826 1366 3933 1400 301 98 676 172 1005
201 143 12 608 13 750 1z m-6772 -292 c273 -411 513 -860 692 -1293 31 -77 64
-147 71 -156 25 -28 104 -417 148 -724 121 -844 98 -1670 -69 -2502 -25 -123
-45 -225 -45 -228 0 -65 -331 460 -512 811 -369 718 -600 1455 -707 2260 -81
609 -73 1359 20 1937 l11 67 138 0 139 0 114 -172z m2638 -438 c-938 -336
-1709 -610 -1713 -610 -5 0 -27 42 -50 93 -158 348 -403 796 -569 1044 -27 40
-49 75 -49 78 0 3 919 5 2043 5 l2042 -1 -1704 -609z m9839 606 c0 -2 -29 -51
-65 -110 -191 -312 -353 -630 -533 -1048 l-21 -47 -68 23 c-201 70 -3298 1178
-3302 1182 -2 2 894 4 1992 4 1099 0 1997 -2 1997 -4z m735 -18 c2 -13 14 -90
24 -173 210 -1592 -133 -3192 -971 -4539 -118 -190 -231 -354 -234 -340 -16
54 -177 850 -193 949 -77 492 -73 1044 9 1554 39 239 220 1063 251 1146 158
412 404 893 672 1313 l72 112 182 0 c181 0 183 0 188 -22z m-10899 -5991
c2683 -958 2626 -938 2844 -996 421 -111 783 -156 1260 -155 349 0 496 11 790
60 385 64 551 112 1330 390 1017 362 3033 1082 3054 1090 38 15 -21 -53 -247
-283 -397 -404 -698 -654 -1142 -948 -1472 -977 -3274 -1346 -5030 -1029
-1261 227 -2428 804 -3394 1678 -210 190 -604 600 -560 584 8 -3 501 -179
1095 -391z"/>
<path d="M6765 6734 c-1405 -61 -2879 -291 -4070 -638 -335 -97 -344 -101
-370 -170 -24 -63 -14 -110 35 -158 33 -33 44 -38 84 -38 28 0 116 21 214 51
1023 310 2377 548 3612 634 525 36 1344 47 1820 25 1306 -62 2489 -273 3586
-639 241 -81 284 -86 334 -45 60 51 75 114 43 181 -9 20 -30 44 -47 54 -41 26
-460 163 -727 239 -942 268 -1798 410 -2959 491 -146 10 -1381 20 -1555 13z"/>
<path d="M2360 4902 c-50 -49 -60 -97 -34 -161 15 -36 28 -51 64 -68 l44 -23
4756 0 4756 0 44 23 c49 25 80 73 80 125 0 44 -34 104 -70 125 -26 16 -373 17
-4815 17 l-4787 0 -38 -38z"/>
<path d="M2390 3748 c-36 -18 -49 -33 -64 -69 -24 -60 -16 -109 27 -155 28
-31 52 -41 197 -85 970 -293 2332 -482 4035 -561 358 -17 1638 -17 1975 0
1520 75 2608 260 3318 563 160 69 199 109 189 195 -6 57 -38 99 -92 119 -53
21 -76 16 -210 -43 -327 -144 -834 -277 -1419 -372 -2251 -365 -5865 -185
-7730 384 -82 26 -157 46 -166 46 -8 0 -36 -10 -60 -22z"/>
<path d="M12465 14075 c-128 -45 -193 -241 -181 -550 23 -649 374 -1164 914
-1345 169 -56 260 -71 475 -77 224 -6 350 4 558 47 204 42 269 64 306 102 56
60 70 112 48 185 -16 55 -53 95 -107 117 -51 22 -69 20 -205 -13 -224 -56
-301 -65 -528 -66 -222 0 -266 6 -410 52 -247 79 -427 238 -552 488 -91 181
-127 341 -127 565 0 147 1 158 27 217 57 132 18 241 -102 281 -43 15 -66 14
-116 -3z"/>
</g>
</svg>
