<?xml version="1.0" standalone="no"?>
<!DOCTYPE svg PUBLIC "-//W3C//DTD SVG 20010904//EN"
 "http://www.w3.org/TR/2001/REC-SVG-20010904/DTD/svg10.dtd">
<svg version="1.0" xmlns="http://www.w3.org/2000/svg"
 width="1438.000000pt" height="1438.000000pt" viewBox="0 0 1438.000000 1438.000000"
 preserveAspectRatio="xMidYMid meet">

<g transform="translate(0.000000,1438.000000) scale(0.100000,-0.100000)"
fill="#000000" stroke="none">
<path d="M6710 14359 c-1599 -106 -3132 -754 -4320 -1825 -150 -135 -461 -449
-590 -593 -478 -541 -890 -1183 -1183 -1846 -163 -370 -339 -884 -413 -1210
-206 -899 -251 -1729 -143 -2600 173 -1394 765 -2723 1692 -3795 810 -938
1858 -1657 3016 -2069 1219 -435 2541 -534 3803 -285 1155 227 2211 719 3127
1458 207 166 366 310 576 520 469 469 845 963 1167 1531 725 1276 1039 2744
903 4215 -133 1423 -689 2776 -1600 3885 -361 441 -821 877 -1285 1222 -1102
819 -2426 1302 -3815 1393 -176 11 -755 11 -935 -1z m699 -5939 c390 -21 767
-86 1121 -194 95 -29 4009 -1421 4016 -1429 1 -1 -29 -148 -67 -327 -187 -877
-204 -1008 -204 -1545 0 -512 23 -702 175 -1416 54 -255 97 -465 96 -466 -7
-8 -3921 -1401 -4016 -1429 -858 -262 -1787 -264 -2655 -8 -127 38 -4014 1421
-4028 1434 -5 4 5 68 22 141 142 625 198 1174 188 1842 -9 584 -62 1037 -191
1617 -19 85 -33 156 -32 157 8 8 3919 1400 4013 1428 413 126 844 193 1308
203 33 1 147 -3 254 -8z m-6652 -262 c260 -382 543 -908 714 -1327 33 -80 66
-152 74 -161 8 -9 33 -99 55 -201 186 -865 218 -1752 94 -2619 -30 -206 -114
-640 -125 -640 -17 0 -262 379 -386 600 -494 876 -776 1812 -865 2875 -19 223
-16 835 5 1065 17 183 53 474 64 518 5 21 8 22 143 22 l137 0 90 -132z m4323
117 c-175 -70 -3375 -1204 -3381 -1198 -4 4 -37 73 -74 153 -145 318 -386 754
-546 992 -22 31 -39 59 -39 62 0 4 917 6 2038 5 1758 0 2032 -2 2002 -14z
m8168 -7 c-162 -250 -393 -692 -542 -1033 -40 -92 -70 -149 -78 -148 -14 3
-3230 1150 -3313 1182 -50 20 -36 20 1949 20 l1998 1 -14 -22z m745 0 c9 -36
45 -321 57 -448 54 -596 32 -1183 -66 -1775 -145 -875 -468 -1734 -932 -2480
-108 -173 -235 -360 -239 -349 -10 34 -167 792 -183 884 -66 392 -83 806 -49
1230 18 230 59 471 165 970 98 463 108 504 161 635 162 400 392 846 640 1238
l75 117 183 0 c181 0 183 0 188 -22z m-11322 -5839 c3181 -1135 3099 -1106
3381 -1174 833 -199 1721 -174 2543 71 105 32 833 290 3169 1123 341 122 621
221 624 221 10 0 -114 -136 -268 -293 -774 -794 -1708 -1381 -2749 -1727 -527
-175 -1023 -277 -1616 -332 -188 -17 -942 -17 -1130 0 -593 55 -1089 157
-1616 332 -907 301 -1722 779 -2449 1435 -175 158 -590 585 -568 585 2 0 308
-108 679 -241z"/>
<path d="M6930 6740 c-1296 -40 -2598 -221 -3815 -530 -337 -85 -670 -181
-724 -208 -48 -24 -73 -62 -78 -119 -3 -36 1 -56 16 -81 46 -72 120 -89 227
-51 305 105 1103 300 1659 403 2685 499 5258 378 7455 -350 123 -41 240 -74
260 -74 102 0 169 114 122 207 -12 22 -32 47 -45 56 -14 9 -120 48 -237 87
-1112 371 -2317 587 -3630 650 -304 14 -909 19 -1210 10z"/>
<path d="M2407 4936 c-48 -18 -62 -29 -81 -70 -32 -67 -8 -154 52 -188 29 -17
276 -18 4816 -18 l4785 0 36 31 c19 17 40 48 46 70 23 75 -24 158 -100 179
-24 7 -1622 10 -4776 10 -3938 -1 -4746 -3 -4778 -14z"/>
<path d="M2391 3752 c-48 -24 -73 -62 -78 -119 -5 -54 17 -100 63 -129 38 -26
297 -103 555 -167 1758 -436 4551 -595 6689 -382 912 92 1648 246 2180 456
213 85 256 116 267 196 6 48 -22 111 -63 138 -55 36 -89 31 -234 -30 -523
-221 -1266 -379 -2220 -474 -2250 -224 -5289 -13 -6917 480 -89 27 -172 49
-185 49 -13 0 -38 -8 -57 -18z"/>
</g>
</svg>
